{"glyphs":{"0":{"ha":833,"x_min":110,"x_max":724,"o":"m 222 972 l 110 857 l 110 167 l 222 0 l 614 0 l 724 115 l 724 807 l 614 972 l 222 972 m 221 826 l 264 872 l 557 872 l 611 792 l 611 739 l 221 335 l 221 826 m 221 181 l 221 190 l 611 596 l 611 146 l 569 100 l 275 100 l 221 181 z "},"1":{"ha":833,"x_min":110,"x_max":724,"o":"m 361 972 l 128 733 l 186 646 l 361 826 l 361 100 l 110 100 l 110 0 l 724 0 l 724 100 l 474 100 l 474 972 l 361 972 z "},"2":{"ha":833,"x_min":108,"x_max":725,"o":"m 222 972 l 110 857 l 165 774 l 264 872 l 564 872 l 653 739 l 108 175 l 108 0 l 725 0 l 725 100 l 219 100 l 219 146 l 725 667 l 725 813 l 618 972 l 222 972 z "},"3":{"ha":833,"x_min":108,"x_max":725,"o":"m 108 972 l 108 872 l 603 872 l 319 581 l 319 468 l 518 468 l 614 332 l 614 151 l 564 100 l 108 100 l 108 0 l 608 0 l 725 121 l 725 343 l 572 569 l 447 569 l 725 857 l 725 972 l 108 972 z "},"4":{"ha":833,"x_min":68,"x_max":765,"o":"m 504 972 l 68 522 l 196 335 l 569 335 l 569 0 l 682 0 l 682 335 l 765 335 l 765 436 l 682 436 l 682 972 l 504 972 m 196 510 l 569 896 l 569 436 l 246 436 l 196 510 z "},"5":{"ha":833,"x_min":108,"x_max":725,"o":"m 108 972 l 108 671 l 176 569 l 518 569 l 613 433 l 613 151 l 563 100 l 108 100 l 108 0 l 608 0 l 725 121 l 725 446 l 571 671 l 228 671 l 219 685 l 219 872 l 696 872 l 696 972 l 108 972 z "},"6":{"ha":833,"x_min":110,"x_max":724,"o":"m 221 972 l 110 857 l 110 169 l 221 0 l 564 0 l 724 164 l 724 481 l 664 569 l 321 569 l 221 468 l 221 828 l 264 872 l 611 872 l 611 972 l 221 972 m 221 181 l 221 326 l 363 468 l 611 468 l 611 193 l 522 100 l 278 100 l 221 181 z "},"7":{"ha":833,"x_min":110,"x_max":724,"o":"m 110 972 l 110 872 l 611 872 l 611 821 l 219 421 l 219 0 l 332 0 l 332 392 l 724 792 l 724 972 l 110 972 z "},"8":{"ha":833,"x_min":110,"x_max":724,"o":"m 318 972 l 110 756 l 110 635 l 224 468 l 239 468 l 110 338 l 110 167 l 222 0 l 565 0 l 724 167 l 724 319 l 599 504 l 724 635 l 724 824 l 625 972 l 318 972 m 221 649 l 221 729 l 361 872 l 569 872 l 611 810 l 611 661 l 518 569 l 275 569 l 221 649 m 221 181 l 221 308 l 374 468 l 501 468 l 611 306 l 611 193 l 518 100 l 275 100 l 221 181 z "},"9":{"ha":833,"x_min":110,"x_max":724,"o":"m 178 972 l 110 901 l 110 688 l 257 468 l 611 468 l 611 233 l 496 100 l 165 100 l 165 0 l 542 0 l 724 204 l 724 750 l 575 972 l 178 972 m 221 703 l 221 872 l 519 872 l 611 735 l 611 569 l 310 569 l 221 703 z "},"A":{"ha":833,"x_min":111,"x_max":722,"o":"m 336 972 l 111 740 l 111 0 l 222 0 l 222 444 l 611 444 l 611 0 l 722 0 l 722 972 l 336 972 m 222 714 l 376 872 l 611 872 l 611 544 l 222 544 l 222 714 z "},"Á":{"ha":833,"x_min":111,"x_max":722,"o":"m 336 972 l 111 740 l 111 0 l 222 0 l 222 444 l 611 444 l 611 0 l 722 0 l 722 972 l 336 972 m 222 714 l 376 872 l 611 872 l 611 544 l 222 544 l 222 714 m 410 1021 l 678 1150 l 608 1244 l 364 1085 l 410 1021 z "},"Ă":{"ha":833,"x_min":111,"x_max":751,"o":"m 336 972 l 111 740 l 111 0 l 222 0 l 222 444 l 611 444 l 611 0 l 722 0 l 722 972 l 336 972 m 222 714 l 376 872 l 611 872 l 611 544 l 222 544 l 222 714 m 304 1168 l 304 1240 l 444 1240 l 444 1111 l 611 1111 l 611 1240 l 751 1240 l 751 1168 l 613 1028 l 444 1028 l 304 1168 z "},"Â":{"ha":833,"x_min":111,"x_max":744,"o":"m 336 972 l 111 740 l 111 0 l 222 0 l 222 444 l 611 444 l 611 0 l 722 0 l 722 972 l 336 972 m 222 714 l 376 872 l 611 872 l 611 544 l 222 544 l 222 714 m 558 1219 l 497 1219 l 310 1078 l 369 1014 l 526 1111 l 686 1014 l 744 1078 l 558 1219 z "},"Ä":{"ha":833,"x_min":111,"x_max":750,"o":"m 336 972 l 111 740 l 111 0 l 222 0 l 222 444 l 611 444 l 611 0 l 722 0 l 722 972 l 336 972 m 222 714 l 376 872 l 611 872 l 611 544 l 222 544 l 222 714 m 306 1026 l 306 1179 l 458 1179 l 458 1026 l 306 1026 m 597 1026 l 597 1179 l 750 1179 l 750 1026 l 597 1026 z "},"À":{"ha":833,"x_min":111,"x_max":722,"o":"m 336 972 l 111 740 l 111 0 l 222 0 l 222 444 l 611 444 l 611 0 l 722 0 l 722 972 l 336 972 m 222 714 l 376 872 l 611 872 l 611 544 l 222 544 l 222 714 m 646 1022 l 692 1086 l 447 1246 l 378 1151 l 646 1022 z "},"Ā":{"ha":833,"x_min":111,"x_max":722,"o":"m 336 972 l 111 740 l 111 0 l 222 0 l 222 444 l 611 444 l 611 0 l 722 0 l 722 972 l 336 972 m 222 714 l 376 872 l 611 872 l 611 544 l 222 544 l 222 714 m 710 1028 l 346 1028 l 346 1128 l 710 1128 l 710 1028 z "},"Ą":{"ha":833,"x_min":111,"x_max":722,"o":"m 336 972 l 111 740 l 111 0 l 222 0 l 222 444 l 611 444 l 611 0 l 722 0 l 722 972 l 336 972 m 222 714 l 376 872 l 611 872 l 611 544 l 222 544 l 222 714 m 722 -157 l 583 -157 l 722 1 l 619 15 l 500 -107 l 500 -150 l 611 -243 l 722 -243 l 722 -157 z "},"Å":{"ha":833,"x_min":111,"x_max":722,"o":"m 336 972 l 111 740 l 111 0 l 222 0 l 222 444 l 611 444 l 611 0 l 722 0 l 722 972 l 336 972 m 222 714 l 376 872 l 611 872 l 611 544 l 222 544 l 222 714 m 464 1324 l 379 1238 l 379 1113 l 464 1028 l 588 1028 l 676 1113 l 676 1238 l 588 1324 l 464 1324 m 496 1251 l 558 1251 l 604 1208 l 604 1143 l 558 1100 l 496 1100 l 451 1143 l 451 1208 l 496 1251 z "},"Ã":{"ha":833,"x_min":111,"x_max":804,"o":"m 336 972 l 111 740 l 111 0 l 222 0 l 222 444 l 611 444 l 611 0 l 722 0 l 722 972 l 336 972 m 222 714 l 376 872 l 611 872 l 611 544 l 222 544 l 222 714 m 760 1188 l 651 1122 l 394 1190 l 251 1106 l 296 1029 l 410 1099 l 661 1028 l 804 1113 l 760 1188 z "},"Æ":{"ha":833,"x_min":-3,"x_max":836,"o":"m 224 972 l -3 739 l -3 0 l 110 0 l 110 468 l 417 468 l 417 0 l 836 0 l 836 100 l 528 100 l 528 468 l 751 468 l 751 569 l 528 569 l 528 872 l 836 872 l 836 972 l 224 972 m 110 711 l 264 872 l 417 872 l 417 569 l 110 569 l 110 711 z "},"B":{"ha":833,"x_min":124,"x_max":738,"o":"m 124 972 l 124 0 l 626 0 l 738 68 l 738 379 l 608 569 l 553 569 l 724 750 l 724 878 l 658 972 l 124 972 m 235 872 l 613 872 l 613 776 l 413 569 l 235 569 l 235 872 m 235 468 l 556 468 l 626 368 l 626 100 l 235 100 l 235 468 z "},"C":{"ha":833,"x_min":132,"x_max":729,"o":"m 244 972 l 635 972 l 726 833 l 656 758 l 582 872 l 286 872 l 243 826 l 243 181 l 297 100 l 590 100 l 674 183 l 729 100 l 635 0 l 243 0 l 132 167 l 132 857 l 244 972 z "},"Ć":{"ha":833,"x_min":132,"x_max":729,"o":"m 244 972 l 635 972 l 726 833 l 656 758 l 582 872 l 286 872 l 243 826 l 243 181 l 297 100 l 590 100 l 674 183 l 729 100 l 635 0 l 243 0 l 132 167 l 132 857 l 244 972 m 299 1021 l 567 1150 l 497 1244 l 253 1085 l 299 1021 z "},"Č":{"ha":833,"x_min":132,"x_max":729,"o":"m 244 972 l 635 972 l 726 833 l 656 758 l 582 872 l 286 872 l 243 826 l 243 181 l 297 100 l 590 100 l 674 183 l 729 100 l 635 0 l 243 0 l 132 167 l 132 857 l 244 972 m 447 1026 l 633 1168 l 575 1232 l 415 1135 l 258 1232 l 199 1168 l 386 1026 l 447 1026 z "},"Ç":{"ha":833,"x_min":132,"x_max":729,"o":"m 244 972 l 635 972 l 726 833 l 656 758 l 582 872 l 286 872 l 243 826 l 243 181 l 297 100 l 590 100 l 674 183 l 729 100 l 635 0 l 243 0 l 132 167 l 132 857 l 244 972 m 347 -144 l 486 -144 l 347 14 l 465 14 l 569 -94 l 569 -137 l 458 -231 l 347 -231 l 347 -144 z "},"Ċ":{"ha":833,"x_min":132,"x_max":729,"o":"m 244 972 l 635 972 l 726 833 l 656 758 l 582 872 l 286 872 l 243 826 l 243 181 l 297 100 l 590 100 l 674 183 l 729 100 l 635 0 l 243 0 l 132 167 l 132 857 l 244 972 m 347 1029 l 347 1168 l 486 1168 l 486 1029 l 347 1029 z "},"D":{"ha":833,"x_min":124,"x_max":739,"o":"m 124 972 l 551 972 l 739 693 l 739 115 l 628 0 l 124 0 l 124 972 m 235 872 l 235 100 l 582 100 l 626 146 l 626 679 l 497 872 l 235 872 z "},"Ð":{"ha":833,"x_min":-1,"x_max":739,"o":"m 124 972 l 551 972 l 739 693 l 739 115 l 628 0 l 124 0 l 124 972 m 235 872 l 235 100 l 582 100 l 626 146 l 626 679 l 497 872 l 235 872 m 360 422 l -1 422 l -1 522 l 360 522 l 360 422 z "},"Ď":{"ha":833,"x_min":124,"x_max":739,"o":"m 124 972 l 551 972 l 739 693 l 739 115 l 628 0 l 124 0 l 124 972 m 235 872 l 235 100 l 582 100 l 626 146 l 626 679 l 497 872 l 235 872 m 447 1026 l 633 1168 l 575 1232 l 415 1135 l 258 1232 l 199 1168 l 386 1026 l 447 1026 z "},"Đ":{"ha":833,"x_min":-1,"x_max":739,"o":"m 124 972 l 551 972 l 739 693 l 739 115 l 628 0 l 124 0 l 124 972 m 235 872 l 235 100 l 582 100 l 626 146 l 626 679 l 497 872 l 235 872 m 360 422 l -1 422 l -1 522 l 360 522 l 360 422 z "},"E":{"ha":833,"x_min":108,"x_max":724,"o":"m 221 972 l 108 857 l 108 167 l 219 0 l 724 0 l 724 100 l 274 100 l 219 181 l 219 468 l 542 468 l 542 569 l 219 569 l 219 826 l 263 872 l 724 872 l 724 972 l 221 972 z "},"É":{"ha":833,"x_min":108,"x_max":724,"o":"m 221 972 l 108 857 l 108 167 l 219 0 l 724 0 l 724 100 l 274 100 l 219 181 l 219 468 l 542 468 l 542 569 l 219 569 l 219 826 l 263 872 l 724 872 l 724 972 l 221 972 m 299 1021 l 567 1150 l 497 1244 l 253 1085 l 299 1021 z "},"Ě":{"ha":833,"x_min":108,"x_max":724,"o":"m 221 972 l 108 857 l 108 167 l 219 0 l 724 0 l 724 100 l 274 100 l 219 181 l 219 468 l 542 468 l 542 569 l 219 569 l 219 826 l 263 872 l 724 872 l 724 972 l 221 972 m 447 1026 l 633 1168 l 575 1232 l 415 1135 l 258 1232 l 199 1168 l 386 1026 l 447 1026 z "},"Ê":{"ha":833,"x_min":108,"x_max":724,"o":"m 221 972 l 108 857 l 108 167 l 219 0 l 724 0 l 724 100 l 274 100 l 219 181 l 219 468 l 542 468 l 542 569 l 219 569 l 219 826 l 263 872 l 724 872 l 724 972 l 221 972 m 447 1219 l 386 1219 l 199 1078 l 258 1014 l 415 1111 l 575 1014 l 633 1078 l 447 1219 z "},"Ë":{"ha":833,"x_min":108,"x_max":724,"o":"m 221 972 l 108 857 l 108 167 l 219 0 l 724 0 l 724 100 l 274 100 l 219 181 l 219 468 l 542 468 l 542 569 l 219 569 l 219 826 l 263 872 l 724 872 l 724 972 l 221 972 m 194 1026 l 194 1179 l 347 1179 l 347 1026 l 194 1026 m 486 1026 l 486 1179 l 639 1179 l 639 1026 l 486 1026 z "},"Ė":{"ha":833,"x_min":108,"x_max":724,"o":"m 221 972 l 108 857 l 108 167 l 219 0 l 724 0 l 724 100 l 274 100 l 219 181 l 219 468 l 542 468 l 542 569 l 219 569 l 219 826 l 263 872 l 724 872 l 724 972 l 221 972 m 347 1029 l 347 1168 l 486 1168 l 486 1029 l 347 1029 z "},"È":{"ha":833,"x_min":108,"x_max":724,"o":"m 221 972 l 108 857 l 108 167 l 219 0 l 724 0 l 724 100 l 274 100 l 219 181 l 219 468 l 542 468 l 542 569 l 219 569 l 219 826 l 263 872 l 724 872 l 724 972 l 221 972 m 535 1022 l 581 1086 l 336 1246 l 267 1151 l 535 1022 z "},"Ē":{"ha":833,"x_min":108,"x_max":724,"o":"m 221 972 l 108 857 l 108 167 l 219 0 l 724 0 l 724 100 l 274 100 l 219 181 l 219 468 l 542 468 l 542 569 l 219 569 l 219 826 l 263 872 l 724 872 l 724 972 l 221 972 m 599 1028 l 235 1028 l 235 1128 l 599 1128 l 599 1028 z "},"Ę":{"ha":833,"x_min":108,"x_max":724,"o":"m 221 972 l 108 857 l 108 167 l 219 0 l 724 0 l 724 100 l 274 100 l 219 181 l 219 468 l 542 468 l 542 569 l 219 569 l 219 826 l 263 872 l 724 872 l 724 972 l 221 972 m 472 -144 l 333 -144 l 472 14 l 369 28 l 250 -94 l 250 -137 l 361 -231 l 472 -231 l 472 -144 z "},"F":{"ha":833,"x_min":124,"x_max":739,"o":"m 260 972 l 124 833 l 124 0 l 235 0 l 235 468 l 557 468 l 557 569 l 235 569 l 235 803 l 301 872 l 739 872 l 739 972 l 260 972 z "},"G":{"ha":833,"x_min":96,"x_max":711,"o":"m 207 972 l 96 856 l 96 160 l 203 0 l 711 0 l 711 482 l 654 568 l 403 568 l 403 468 l 599 468 l 599 100 l 256 100 l 207 175 l 207 828 l 249 872 l 543 872 l 618 761 l 689 833 l 596 972 l 207 972 z "},"Ğ":{"ha":833,"x_min":96,"x_max":711,"o":"m 207 972 l 96 856 l 96 160 l 203 0 l 711 0 l 711 482 l 654 568 l 403 568 l 403 468 l 599 468 l 599 100 l 256 100 l 207 175 l 207 828 l 249 872 l 543 872 l 618 761 l 689 833 l 596 972 l 207 972 m 193 1168 l 193 1240 l 333 1240 l 333 1111 l 500 1111 l 500 1240 l 640 1240 l 640 1168 l 501 1028 l 333 1028 l 193 1168 z "},"Ģ":{"ha":833,"x_min":96,"x_max":711,"o":"m 207 972 l 96 856 l 96 160 l 203 0 l 711 0 l 711 482 l 654 568 l 403 568 l 403 468 l 599 468 l 599 100 l 256 100 l 207 175 l 207 828 l 249 872 l 543 872 l 618 761 l 689 833 l 596 972 l 207 972 m 356 -362 l 522 -119 l 419 -64 l 279 -319 l 356 -362 z "},"Ġ":{"ha":833,"x_min":96,"x_max":711,"o":"m 207 972 l 96 856 l 96 160 l 203 0 l 711 0 l 711 482 l 654 568 l 403 568 l 403 468 l 599 468 l 599 100 l 256 100 l 207 175 l 207 828 l 249 872 l 543 872 l 618 761 l 689 833 l 596 972 l 207 972 m 347 1029 l 347 1168 l 486 1168 l 486 1029 l 347 1029 z "},"H":{"ha":833,"x_min":108,"x_max":725,"o":"m 108 972 l 219 972 l 219 504 l 329 569 l 500 569 l 613 504 l 613 972 l 725 972 l 725 0 l 613 0 l 613 392 l 560 468 l 261 468 l 219 426 l 219 0 l 108 0 l 108 972 z "},"Ħ":{"ha":833,"x_min":0,"x_max":833,"o":"m 108 972 l 219 972 l 219 504 l 329 569 l 500 569 l 613 504 l 613 972 l 725 972 l 725 0 l 613 0 l 613 392 l 560 468 l 261 468 l 219 426 l 219 0 l 108 0 l 108 972 m 833 700 l 0 700 l 0 800 l 833 800 l 833 700 z "},"I":{"ha":833,"x_min":110,"x_max":724,"o":"m 110 972 l 110 871 l 361 871 l 361 101 l 110 101 l 110 0 l 724 0 l 724 101 l 472 101 l 472 871 l 724 871 l 724 972 l 110 972 z "},"Ĳ":{"ha":833,"x_min":25,"x_max":808,"o":"m 25 972 l 25 874 l 224 874 l 276 793 l 276 0 l 389 0 l 389 808 l 451 874 l 671 874 l 613 796 l 613 31 l 457 -135 l 276 -135 l 276 -235 l 500 -235 l 724 0 l 724 874 l 808 874 l 808 972 l 410 972 l 333 894 l 276 972 l 25 972 z "},"Í":{"ha":833,"x_min":110,"x_max":724,"o":"m 110 972 l 110 871 l 361 871 l 361 101 l 110 101 l 110 0 l 724 0 l 724 101 l 472 101 l 472 871 l 724 871 l 724 972 l 110 972 m 299 1054 l 567 1183 l 497 1278 l 253 1118 l 299 1054 z "},"Î":{"ha":833,"x_min":110,"x_max":724,"o":"m 110 972 l 110 871 l 361 871 l 361 101 l 110 101 l 110 0 l 724 0 l 724 101 l 472 101 l 472 871 l 724 871 l 724 972 l 110 972 m 447 1253 l 386 1253 l 199 1111 l 258 1047 l 415 1144 l 575 1047 l 633 1111 l 447 1253 z "},"Ï":{"ha":833,"x_min":110,"x_max":724,"o":"m 110 972 l 110 871 l 361 871 l 361 101 l 110 101 l 110 0 l 724 0 l 724 101 l 472 101 l 472 871 l 724 871 l 724 972 l 110 972 m 194 1060 l 194 1213 l 347 1213 l 347 1060 l 194 1060 m 486 1060 l 486 1213 l 639 1213 l 639 1060 l 486 1060 z "},"İ":{"ha":833,"x_min":110,"x_max":724,"o":"m 110 972 l 110 871 l 361 871 l 361 101 l 110 101 l 110 0 l 724 0 l 724 101 l 472 101 l 472 871 l 724 871 l 724 972 l 110 972 m 347 1063 l 347 1201 l 486 1201 l 486 1063 l 347 1063 z "},"Ì":{"ha":833,"x_min":110,"x_max":724,"o":"m 110 972 l 110 871 l 361 871 l 361 101 l 110 101 l 110 0 l 724 0 l 724 101 l 472 101 l 472 871 l 724 871 l 724 972 l 110 972 m 535 1056 l 581 1119 l 336 1279 l 267 1185 l 535 1056 z "},"Ī":{"ha":833,"x_min":110,"x_max":724,"o":"m 110 972 l 110 871 l 361 871 l 361 101 l 110 101 l 110 0 l 724 0 l 724 101 l 472 101 l 472 871 l 724 871 l 724 972 l 110 972 m 599 1061 l 235 1061 l 235 1161 l 599 1161 l 599 1061 z "},"Į":{"ha":833,"x_min":110,"x_max":724,"o":"m 110 972 l 110 871 l 361 871 l 361 101 l 110 101 l 110 0 l 724 0 l 724 101 l 472 101 l 472 871 l 724 871 l 724 972 l 110 972 m 472 -144 l 333 -144 l 472 14 l 369 28 l 250 -94 l 250 -137 l 361 -231 l 472 -231 l 472 -144 z "},"J":{"ha":833,"x_min":165,"x_max":668,"o":"m 165 972 l 165 871 l 557 871 l 557 165 l 401 0 l 276 0 l 276 -100 l 444 -100 l 668 135 l 668 972 l 165 972 z "},"K":{"ha":833,"x_min":40,"x_max":793,"o":"m 626 972 l 151 479 l 151 972 l 40 972 l 40 0 l 151 0 l 151 335 l 321 513 l 674 0 l 793 0 l 392 586 l 772 972 l 626 972 z "},"Ķ":{"ha":833,"x_min":40,"x_max":793,"o":"m 626 972 l 151 479 l 151 972 l 40 972 l 40 0 l 151 0 l 151 335 l 321 513 l 674 0 l 793 0 l 392 586 l 772 972 l 626 972 m 356 -362 l 522 -119 l 419 -64 l 279 -319 l 356 -362 z "},"L":{"ha":833,"x_min":108,"x_max":725,"o":"m 108 972 l 108 172 l 224 0 l 725 0 l 725 201 l 613 201 l 613 101 l 276 101 l 219 183 l 219 972 l 108 972 z "},"Ĺ":{"ha":833,"x_min":1,"x_max":725,"o":"m 108 972 l 108 172 l 224 0 l 725 0 l 725 201 l 613 201 l 613 101 l 276 101 l 219 183 l 219 972 l 108 972 m 47 1035 l 315 1164 l 246 1258 l 1 1099 l 47 1035 z "},"Ľ":{"ha":833,"x_min":108,"x_max":725,"o":"m 108 972 l 108 172 l 224 0 l 725 0 l 725 201 l 613 201 l 613 101 l 276 101 l 219 183 l 219 972 l 108 972 m 490 1019 l 642 996 l 533 674 l 439 696 l 490 1019 z "},"Ļ":{"ha":833,"x_min":108,"x_max":725,"o":"m 108 972 l 108 172 l 224 0 l 725 0 l 725 201 l 613 201 l 613 101 l 276 101 l 219 183 l 219 972 l 108 972 m 356 -362 l 522 -119 l 419 -64 l 279 -319 l 356 -362 z "},"Ł":{"ha":833,"x_min":108,"x_max":725,"o":"m 108 972 l 108 172 l 224 0 l 725 0 l 725 201 l 613 201 l 613 101 l 276 101 l 219 183 l 219 972 l 108 972 m 525 892 l 186 -107 l 279 -139 l 619 860 l 525 892 z "},"M":{"ha":833,"x_min":110,"x_max":725,"o":"m 110 972 l 110 0 l 221 0 l 221 756 l 354 558 l 354 556 l 475 556 l 475 682 l 613 826 l 613 0 l 725 0 l 725 972 l 613 972 l 367 718 l 221 933 l 221 972 l 110 972 z "},"N":{"ha":833,"x_min":110,"x_max":725,"o":"m 613 972 l 613 551 l 328 972 l 110 972 l 110 0 l 221 0 l 221 872 l 275 872 l 613 371 l 613 0 l 725 0 l 725 972 l 613 972 z "},"Ń":{"ha":833,"x_min":110,"x_max":725,"o":"m 613 972 l 613 551 l 328 972 l 110 972 l 110 0 l 221 0 l 221 872 l 275 872 l 613 371 l 613 0 l 725 0 l 725 972 l 613 972 m 299 1021 l 567 1150 l 497 1244 l 253 1085 l 299 1021 z "},"Ň":{"ha":833,"x_min":110,"x_max":725,"o":"m 613 972 l 613 551 l 328 972 l 110 972 l 110 0 l 221 0 l 221 872 l 275 872 l 613 371 l 613 0 l 725 0 l 725 972 l 613 972 m 447 1026 l 633 1168 l 575 1232 l 415 1135 l 258 1232 l 199 1168 l 386 1026 l 447 1026 z "},"Ņ":{"ha":833,"x_min":110,"x_max":725,"o":"m 613 972 l 613 551 l 328 972 l 110 972 l 110 0 l 221 0 l 221 872 l 275 872 l 613 371 l 613 0 l 725 0 l 725 972 l 613 972 m 356 -362 l 522 -119 l 419 -64 l 279 -319 l 356 -362 z "},"Ñ":{"ha":833,"x_min":110,"x_max":725,"o":"m 613 972 l 613 551 l 328 972 l 110 972 l 110 0 l 221 0 l 221 872 l 275 872 l 613 371 l 613 0 l 725 0 l 725 972 l 613 972 m 649 1188 l 540 1122 l 283 1190 l 140 1106 l 185 1029 l 299 1099 l 550 1028 l 693 1113 l 649 1188 z "},"O":{"ha":833,"x_min":108,"x_max":725,"o":"m 221 972 l 615 972 l 725 806 l 725 115 l 615 0 l 221 0 l 108 167 l 108 857 l 221 972 m 219 181 l 274 100 l 571 100 l 613 146 l 613 792 l 560 872 l 263 872 l 219 826 l 219 181 z "},"Ó":{"ha":833,"x_min":108,"x_max":725,"o":"m 221 972 l 615 972 l 725 806 l 725 115 l 615 0 l 221 0 l 108 167 l 108 857 l 221 972 m 219 181 l 274 100 l 571 100 l 613 146 l 613 792 l 560 872 l 263 872 l 219 826 l 219 181 m 299 1021 l 567 1150 l 497 1244 l 253 1085 l 299 1021 z "},"Ô":{"ha":833,"x_min":108,"x_max":725,"o":"m 221 972 l 615 972 l 725 806 l 725 115 l 615 0 l 221 0 l 108 167 l 108 857 l 221 972 m 219 181 l 274 100 l 571 100 l 613 146 l 613 792 l 560 872 l 263 872 l 219 826 l 219 181 m 447 1219 l 386 1219 l 199 1078 l 258 1014 l 415 1111 l 575 1014 l 633 1078 l 447 1219 z "},"Ö":{"ha":833,"x_min":108,"x_max":725,"o":"m 221 972 l 615 972 l 725 806 l 725 115 l 615 0 l 221 0 l 108 167 l 108 857 l 221 972 m 219 181 l 274 100 l 571 100 l 613 146 l 613 792 l 560 872 l 263 872 l 219 826 l 219 181 m 194 1026 l 194 1179 l 347 1179 l 347 1026 l 194 1026 m 486 1026 l 486 1179 l 639 1179 l 639 1026 l 486 1026 z "},"Ò":{"ha":833,"x_min":108,"x_max":725,"o":"m 221 972 l 615 972 l 725 806 l 725 115 l 615 0 l 221 0 l 108 167 l 108 857 l 221 972 m 219 181 l 274 100 l 571 100 l 613 146 l 613 792 l 560 872 l 263 872 l 219 826 l 219 181 m 535 1022 l 581 1086 l 336 1246 l 267 1151 l 535 1022 z "},"Ő":{"ha":833,"x_min":108,"x_max":738,"o":"m 221 972 l 615 972 l 725 806 l 725 115 l 615 0 l 221 0 l 108 167 l 108 857 l 221 972 m 219 181 l 274 100 l 571 100 l 613 146 l 613 792 l 560 872 l 263 872 l 219 826 l 219 181 m 338 1015 l 517 1251 l 408 1311 l 264 1057 l 338 1015 m 535 1015 l 738 1232 l 636 1303 l 465 1065 l 535 1015 z "},"Ø":{"ha":833,"x_min":108,"x_max":725,"o":"m 221 972 l 615 972 l 725 806 l 725 115 l 615 0 l 221 0 l 108 167 l 108 857 l 221 972 m 219 181 l 274 100 l 571 100 l 613 146 l 613 792 l 560 872 l 263 872 l 219 826 l 219 181 m 589 1079 l 683 1047 l 282 -132 l 189 -100 l 589 1079 z "},"Õ":{"ha":833,"x_min":108,"x_max":725,"o":"m 221 972 l 615 972 l 725 806 l 725 115 l 615 0 l 221 0 l 108 167 l 108 857 l 221 972 m 219 181 l 274 100 l 571 100 l 613 146 l 613 792 l 560 872 l 263 872 l 219 826 l 219 181 m 649 1188 l 540 1122 l 283 1190 l 140 1106 l 185 1029 l 299 1099 l 550 1028 l 693 1113 l 649 1188 z "},"Œ":{"ha":833,"x_min":-3,"x_max":836,"o":"m 110 826 l 151 872 l 364 872 l 417 792 l 417 146 l 375 100 l 163 100 l 110 181 l 110 826 m 528 468 l 751 468 l 751 569 l 528 569 l 528 806 l 485 872 l 836 872 l 836 972 l 110 972 l -3 857 l -3 167 l 111 0 l 836 0 l 836 100 l 514 100 l 528 115 l 528 468 z "},"P":{"ha":833,"x_min":110,"x_max":724,"o":"m 110 972 l 110 0 l 221 0 l 221 468 l 613 468 l 724 581 l 724 806 l 613 972 l 110 972 m 222 872 l 558 872 l 613 790 l 613 611 l 569 567 l 335 567 l 222 501 l 222 872 z "},"Þ":{"ha":833,"x_min":110,"x_max":724,"o":"m 110 1035 l 110 0 l 221 0 l 221 201 l 335 136 l 611 136 l 724 253 l 724 706 l 611 874 l 332 874 l 221 807 l 221 1035 l 110 1035 m 221 728 l 265 772 l 558 772 l 613 692 l 613 281 l 571 236 l 221 236 l 221 728 z "},"Q":{"ha":833,"x_min":110,"x_max":724,"o":"m 224 972 l 110 856 l 110 165 l 222 0 l 581 0 l 621 -57 l 703 0 l 540 242 l 457 185 l 515 100 l 275 100 l 221 181 l 221 828 l 263 871 l 558 871 l 611 793 l 611 144 l 724 260 l 724 806 l 610 972 l 224 972 z "},"R":{"ha":833,"x_min":108,"x_max":725,"o":"m 108 972 l 108 0 l 219 0 l 219 536 l 329 468 l 472 468 l 613 264 l 613 0 l 725 0 l 725 276 l 588 475 l 725 615 l 725 754 l 575 972 l 108 972 m 219 872 l 521 872 l 613 739 l 613 640 l 542 569 l 219 569 l 219 872 z "},"Ŕ":{"ha":833,"x_min":108,"x_max":725,"o":"m 108 972 l 108 0 l 219 0 l 219 536 l 329 468 l 472 468 l 613 264 l 613 0 l 725 0 l 725 276 l 588 475 l 725 615 l 725 754 l 575 972 l 108 972 m 219 872 l 521 872 l 613 739 l 613 640 l 542 569 l 219 569 l 219 872 m 299 1021 l 567 1150 l 497 1244 l 253 1085 l 299 1021 z "},"Ř":{"ha":833,"x_min":108,"x_max":725,"o":"m 108 972 l 108 0 l 219 0 l 219 536 l 329 468 l 472 468 l 613 264 l 613 0 l 725 0 l 725 276 l 588 475 l 725 615 l 725 754 l 575 972 l 108 972 m 219 872 l 521 872 l 613 739 l 613 640 l 542 569 l 219 569 l 219 872 m 447 1026 l 633 1168 l 575 1232 l 415 1135 l 258 1232 l 199 1168 l 386 1026 l 447 1026 z "},"S":{"ha":833,"x_min":110,"x_max":724,"o":"m 221 972 l 613 972 l 686 858 l 615 789 l 558 872 l 263 872 l 221 828 l 221 649 l 276 568 l 625 568 l 724 421 l 724 101 l 626 0 l 171 0 l 110 86 l 179 160 l 222 100 l 579 100 l 613 129 l 613 408 l 571 468 l 221 468 l 110 633 l 110 857 l 221 972 z "},"Ś":{"ha":833,"x_min":110,"x_max":724,"o":"m 221 972 l 613 972 l 686 858 l 615 789 l 558 872 l 263 872 l 221 828 l 221 649 l 276 568 l 625 568 l 724 421 l 724 101 l 626 0 l 171 0 l 110 86 l 179 160 l 222 100 l 579 100 l 613 129 l 613 408 l 571 468 l 221 468 l 110 633 l 110 857 l 221 972 m 299 1021 l 567 1150 l 497 1244 l 253 1085 l 299 1021 z "},"Š":{"ha":833,"x_min":110,"x_max":724,"o":"m 221 972 l 613 972 l 686 858 l 615 789 l 558 872 l 263 872 l 221 828 l 221 649 l 276 568 l 625 568 l 724 421 l 724 101 l 626 0 l 171 0 l 110 86 l 179 160 l 222 100 l 579 100 l 613 129 l 613 408 l 571 468 l 221 468 l 110 633 l 110 857 l 221 972 m 447 1026 l 633 1168 l 575 1232 l 415 1135 l 258 1232 l 199 1168 l 386 1026 l 447 1026 z "},"Ş":{"ha":833,"x_min":110,"x_max":724,"o":"m 221 972 l 613 972 l 686 858 l 615 789 l 558 872 l 263 872 l 221 828 l 221 649 l 276 568 l 625 568 l 724 421 l 724 101 l 626 0 l 171 0 l 110 86 l 179 160 l 222 100 l 579 100 l 613 129 l 613 408 l 571 468 l 221 468 l 110 633 l 110 857 l 221 972 m 347 -144 l 486 -144 l 347 14 l 465 14 l 569 -94 l 569 -137 l 458 -231 l 347 -231 l 347 -144 z "},"Ș":{"ha":833,"x_min":110,"x_max":724,"o":"m 221 972 l 613 972 l 686 858 l 615 789 l 558 872 l 263 872 l 221 828 l 221 649 l 276 568 l 625 568 l 724 421 l 724 101 l 626 0 l 171 0 l 110 86 l 179 160 l 222 100 l 579 100 l 613 129 l 613 408 l 571 468 l 221 468 l 110 633 l 110 857 l 221 972 m 356 -362 l 522 -119 l 419 -64 l 279 -319 l 356 -362 z "},"ẞ":{"ha":833,"x_min":108,"x_max":725,"o":"m 332 972 l 108 742 l 108 0 l 221 0 l 221 711 l 375 872 l 600 872 l 318 581 l 318 468 l 519 468 l 613 332 l 613 151 l 564 100 l 396 100 l 396 0 l 606 0 l 724 121 l 724 344 l 572 569 l 449 569 l 725 857 l 725 972 l 332 972 z "},"T":{"ha":833,"x_min":54,"x_max":779,"o":"m 54 972 l 779 972 l 779 872 l 365 872 l 474 806 l 474 0 l 361 0 l 361 792 l 308 872 l 54 872 l 54 972 z "},"Ť":{"ha":833,"x_min":54,"x_max":779,"o":"m 54 972 l 779 972 l 779 872 l 365 872 l 474 806 l 474 0 l 361 0 l 361 792 l 308 872 l 54 872 l 54 972 m 447 1026 l 633 1168 l 575 1232 l 415 1135 l 258 1232 l 199 1168 l 386 1026 l 447 1026 z "},"Ț":{"ha":833,"x_min":54,"x_max":779,"o":"m 54 972 l 779 972 l 779 872 l 365 872 l 474 806 l 474 0 l 361 0 l 361 792 l 308 872 l 54 872 l 54 972 m 356 -362 l 522 -119 l 419 -64 l 279 -319 l 356 -362 z "},"U":{"ha":833,"x_min":108,"x_max":725,"o":"m 613 972 l 613 146 l 568 100 l 274 100 l 219 181 l 219 972 l 108 972 l 108 167 l 221 0 l 501 0 l 613 68 l 613 0 l 725 0 l 725 972 l 613 972 z "},"Ú":{"ha":833,"x_min":108,"x_max":725,"o":"m 613 972 l 613 146 l 568 100 l 274 100 l 219 181 l 219 972 l 108 972 l 108 167 l 221 0 l 501 0 l 613 68 l 613 0 l 725 0 l 725 972 l 613 972 m 299 1021 l 567 1150 l 497 1244 l 253 1085 l 299 1021 z "},"Û":{"ha":833,"x_min":108,"x_max":725,"o":"m 613 972 l 613 146 l 568 100 l 274 100 l 219 181 l 219 972 l 108 972 l 108 167 l 221 0 l 501 0 l 613 68 l 613 0 l 725 0 l 725 972 l 613 972 m 447 1219 l 386 1219 l 199 1078 l 258 1014 l 415 1111 l 575 1014 l 633 1078 l 447 1219 z "},"Ü":{"ha":833,"x_min":108,"x_max":725,"o":"m 613 972 l 613 146 l 568 100 l 274 100 l 219 181 l 219 972 l 108 972 l 108 167 l 221 0 l 501 0 l 613 68 l 613 0 l 725 0 l 725 972 l 613 972 m 194 1026 l 194 1179 l 347 1179 l 347 1026 l 194 1026 m 486 1026 l 486 1179 l 639 1179 l 639 1026 l 486 1026 z "},"Ù":{"ha":833,"x_min":108,"x_max":725,"o":"m 613 972 l 613 146 l 568 100 l 274 100 l 219 181 l 219 972 l 108 972 l 108 167 l 221 0 l 501 0 l 613 68 l 613 0 l 725 0 l 725 972 l 613 972 m 535 1022 l 581 1086 l 336 1246 l 267 1151 l 535 1022 z "},"Ű":{"ha":833,"x_min":108,"x_max":738,"o":"m 613 972 l 613 146 l 568 100 l 274 100 l 219 181 l 219 972 l 108 972 l 108 167 l 221 0 l 501 0 l 613 68 l 613 0 l 725 0 l 725 972 l 613 972 m 338 1015 l 517 1251 l 408 1311 l 264 1057 l 338 1015 m 535 1015 l 738 1232 l 636 1303 l 465 1065 l 535 1015 z "},"Ū":{"ha":833,"x_min":108,"x_max":725,"o":"m 613 972 l 613 146 l 568 100 l 274 100 l 219 181 l 219 972 l 108 972 l 108 167 l 221 0 l 501 0 l 613 68 l 613 0 l 725 0 l 725 972 l 613 972 m 599 1028 l 235 1028 l 235 1128 l 599 1128 l 599 1028 z "},"Ų":{"ha":833,"x_min":108,"x_max":725,"o":"m 613 972 l 613 146 l 568 100 l 274 100 l 219 181 l 219 972 l 108 972 l 108 167 l 221 0 l 501 0 l 613 68 l 613 0 l 725 0 l 725 972 l 613 972 m 725 -158 l 586 -158 l 725 0 l 622 14 l 503 -108 l 503 -151 l 614 -244 l 725 -244 l 725 -158 z "},"Ů":{"ha":833,"x_min":108,"x_max":725,"o":"m 613 972 l 613 146 l 568 100 l 274 100 l 219 181 l 219 972 l 108 972 l 108 167 l 221 0 l 501 0 l 613 68 l 613 0 l 725 0 l 725 972 l 613 972 m 353 1324 l 268 1238 l 268 1113 l 353 1028 l 476 1028 l 565 1113 l 565 1238 l 476 1324 l 353 1324 m 385 1251 l 447 1251 l 493 1208 l 493 1143 l 447 1100 l 385 1100 l 340 1143 l 340 1208 l 385 1251 z "},"V":{"ha":833,"x_min":110,"x_max":724,"o":"m 613 972 l 613 342 l 378 99 l 221 335 l 221 972 l 110 972 l 110 319 l 325 0 l 422 0 l 724 314 l 724 972 l 613 972 z "},"W":{"ha":833,"x_min":81,"x_max":751,"o":"m 81 972 l 81 167 l 192 0 l 307 0 l 428 128 l 514 0 l 639 0 l 751 115 l 751 972 l 639 972 l 639 142 l 601 100 l 568 100 l 472 240 l 472 569 l 360 569 l 360 199 l 265 100 l 231 100 l 192 165 l 192 972 l 81 972 z "},"Ẃ":{"ha":833,"x_min":81,"x_max":751,"o":"m 81 972 l 81 167 l 192 0 l 307 0 l 428 128 l 514 0 l 639 0 l 751 115 l 751 972 l 639 972 l 639 142 l 601 100 l 568 100 l 472 240 l 472 569 l 360 569 l 360 199 l 265 100 l 231 100 l 192 165 l 192 972 l 81 972 m 299 1021 l 567 1150 l 497 1244 l 253 1085 l 299 1021 z "},"Ŵ":{"ha":833,"x_min":81,"x_max":751,"o":"m 81 972 l 81 167 l 192 0 l 307 0 l 428 128 l 514 0 l 639 0 l 751 115 l 751 972 l 639 972 l 639 142 l 601 100 l 568 100 l 472 240 l 472 569 l 360 569 l 360 199 l 265 100 l 231 100 l 192 165 l 192 972 l 81 972 m 447 1219 l 386 1219 l 199 1078 l 258 1014 l 415 1111 l 575 1014 l 633 1078 l 447 1219 z "},"Ẅ":{"ha":833,"x_min":81,"x_max":751,"o":"m 81 972 l 81 167 l 192 0 l 307 0 l 428 128 l 514 0 l 639 0 l 751 115 l 751 972 l 639 972 l 639 142 l 601 100 l 568 100 l 472 240 l 472 569 l 360 569 l 360 199 l 265 100 l 231 100 l 192 165 l 192 972 l 81 972 m 194 1026 l 194 1179 l 347 1179 l 347 1026 l 194 1026 m 486 1026 l 486 1179 l 639 1179 l 639 1026 l 486 1026 z "},"Ẁ":{"ha":833,"x_min":81,"x_max":751,"o":"m 81 972 l 81 167 l 192 0 l 307 0 l 428 128 l 514 0 l 639 0 l 751 115 l 751 972 l 639 972 l 639 142 l 601 100 l 568 100 l 472 240 l 472 569 l 360 569 l 360 199 l 265 100 l 231 100 l 192 165 l 192 972 l 81 972 m 535 1022 l 581 1086 l 336 1246 l 267 1151 l 535 1022 z "},"X":{"ha":833,"x_min":108,"x_max":725,"o":"m 613 972 l 613 739 l 450 569 l 300 569 l 219 690 l 219 972 l 108 972 l 108 676 l 249 471 l 108 329 l 108 0 l 219 0 l 219 299 l 383 468 l 529 468 l 613 350 l 613 0 l 725 0 l 725 365 l 585 569 l 725 711 l 725 972 l 613 972 z "},"Y":{"ha":833,"x_min":108,"x_max":724,"o":"m 611 972 l 724 972 l 724 744 l 471 483 l 471 0 l 360 0 l 360 471 l 108 844 l 108 972 l 219 972 l 219 857 l 413 569 l 415 569 l 611 774 l 611 972 z "},"Ý":{"ha":833,"x_min":108,"x_max":724,"o":"m 611 972 l 724 972 l 724 744 l 471 483 l 471 0 l 360 0 l 360 471 l 108 844 l 108 972 l 219 972 l 219 857 l 413 569 l 415 569 l 611 774 l 611 972 m 299 1021 l 567 1150 l 497 1244 l 253 1085 l 299 1021 z "},"Ŷ":{"ha":833,"x_min":108,"x_max":724,"o":"m 611 972 l 724 972 l 724 744 l 471 483 l 471 0 l 360 0 l 360 471 l 108 844 l 108 972 l 219 972 l 219 857 l 413 569 l 415 569 l 611 774 l 611 972 m 447 1219 l 386 1219 l 199 1078 l 258 1014 l 415 1111 l 575 1014 l 633 1078 l 447 1219 z "},"Ÿ":{"ha":833,"x_min":108,"x_max":724,"o":"m 611 972 l 724 972 l 724 744 l 471 483 l 471 0 l 360 0 l 360 471 l 108 844 l 108 972 l 219 972 l 219 857 l 413 569 l 415 569 l 611 774 l 611 972 m 194 1026 l 194 1179 l 347 1179 l 347 1026 l 194 1026 m 486 1026 l 486 1179 l 639 1179 l 639 1026 l 486 1026 z "},"Ỳ":{"ha":833,"x_min":108,"x_max":724,"o":"m 611 972 l 724 972 l 724 744 l 471 483 l 471 0 l 360 0 l 360 471 l 108 844 l 108 972 l 219 972 l 219 857 l 413 569 l 415 569 l 611 774 l 611 972 m 535 1022 l 581 1086 l 336 1246 l 267 1151 l 535 1022 z "},"Z":{"ha":833,"x_min":108,"x_max":725,"o":"m 108 972 l 108 872 l 613 872 l 613 742 l 492 614 l 563 569 l 318 569 l 318 468 l 349 468 l 108 219 l 108 0 l 725 0 l 725 100 l 219 100 l 219 193 l 446 426 l 378 468 l 613 468 l 613 569 l 588 569 l 725 711 l 725 972 l 108 972 z "},"Ź":{"ha":833,"x_min":108,"x_max":725,"o":"m 108 972 l 108 872 l 613 872 l 613 742 l 492 614 l 563 569 l 318 569 l 318 468 l 349 468 l 108 219 l 108 0 l 725 0 l 725 100 l 219 100 l 219 193 l 446 426 l 378 468 l 613 468 l 613 569 l 588 569 l 725 711 l 725 972 l 108 972 m 299 1021 l 567 1150 l 497 1244 l 253 1085 l 299 1021 z "},"Ž":{"ha":833,"x_min":108,"x_max":725,"o":"m 108 972 l 108 872 l 613 872 l 613 742 l 492 614 l 563 569 l 318 569 l 318 468 l 349 468 l 108 219 l 108 0 l 725 0 l 725 100 l 219 100 l 219 193 l 446 426 l 378 468 l 613 468 l 613 569 l 588 569 l 725 711 l 725 972 l 108 972 m 447 1026 l 633 1168 l 575 1232 l 415 1135 l 258 1232 l 199 1168 l 386 1026 l 447 1026 z "},"Ż":{"ha":833,"x_min":108,"x_max":725,"o":"m 108 972 l 108 872 l 613 872 l 613 742 l 492 614 l 563 569 l 318 569 l 318 468 l 349 468 l 108 219 l 108 0 l 725 0 l 725 100 l 219 100 l 219 193 l 446 426 l 378 468 l 613 468 l 613 569 l 588 569 l 725 711 l 725 972 l 108 972 m 347 1029 l 347 1168 l 486 1168 l 486 1029 l 347 1029 z "},"a":{"ha":833,"x_min":96,"x_max":736,"o":"m 213 768 l 213 665 l 619 665 l 619 454 l 313 454 l 96 229 l 96 174 l 213 0 l 503 0 l 619 71 l 619 0 l 736 0 l 736 639 l 649 768 l 213 768 m 213 188 l 213 199 l 358 349 l 619 349 l 619 106 l 267 106 l 213 188 z "},"á":{"ha":833,"x_min":96,"x_max":736,"o":"m 213 768 l 213 665 l 619 665 l 619 454 l 313 454 l 96 229 l 96 174 l 213 0 l 503 0 l 619 71 l 619 0 l 736 0 l 736 639 l 649 768 l 213 768 m 213 188 l 213 199 l 358 349 l 619 349 l 619 106 l 267 106 l 213 188 m 326 831 l 594 960 l 525 1054 l 281 894 l 326 831 z "},"ă":{"ha":833,"x_min":96,"x_max":736,"o":"m 213 768 l 213 665 l 619 665 l 619 454 l 313 454 l 96 229 l 96 174 l 213 0 l 503 0 l 619 71 l 619 0 l 736 0 l 736 639 l 649 768 l 213 768 m 213 188 l 213 199 l 358 349 l 619 349 l 619 106 l 267 106 l 213 188 m 221 978 l 221 1050 l 361 1050 l 361 921 l 528 921 l 528 1050 l 668 1050 l 668 978 l 529 838 l 361 838 l 221 978 z "},"â":{"ha":833,"x_min":96,"x_max":736,"o":"m 213 768 l 213 665 l 619 665 l 619 454 l 313 454 l 96 229 l 96 174 l 213 0 l 503 0 l 619 71 l 619 0 l 736 0 l 736 639 l 649 768 l 213 768 m 213 188 l 213 199 l 358 349 l 619 349 l 619 106 l 267 106 l 213 188 m 475 1029 l 414 1029 l 226 888 l 286 824 l 443 921 l 603 824 l 661 888 l 475 1029 z "},"ä":{"ha":833,"x_min":96,"x_max":736,"o":"m 213 768 l 213 665 l 619 665 l 619 454 l 313 454 l 96 229 l 96 174 l 213 0 l 503 0 l 619 71 l 619 0 l 736 0 l 736 639 l 649 768 l 213 768 m 213 188 l 213 199 l 358 349 l 619 349 l 619 106 l 267 106 l 213 188 m 222 836 l 222 989 l 375 989 l 375 836 l 222 836 m 514 836 l 514 989 l 667 989 l 667 836 l 514 836 z "},"à":{"ha":833,"x_min":96,"x_max":736,"o":"m 213 768 l 213 665 l 619 665 l 619 454 l 313 454 l 96 229 l 96 174 l 213 0 l 503 0 l 619 71 l 619 0 l 736 0 l 736 639 l 649 768 l 213 768 m 213 188 l 213 199 l 358 349 l 619 349 l 619 106 l 267 106 l 213 188 m 563 832 l 608 896 l 364 1056 l 294 961 l 563 832 z "},"ā":{"ha":833,"x_min":96,"x_max":736,"o":"m 213 768 l 213 665 l 619 665 l 619 454 l 313 454 l 96 229 l 96 174 l 213 0 l 503 0 l 619 71 l 619 0 l 736 0 l 736 639 l 649 768 l 213 768 m 213 188 l 213 199 l 358 349 l 619 349 l 619 106 l 267 106 l 213 188 m 626 838 l 263 838 l 263 938 l 626 938 l 626 838 z "},"ą":{"ha":833,"x_min":96,"x_max":736,"o":"m 213 768 l 213 665 l 619 665 l 619 454 l 313 454 l 96 229 l 96 174 l 213 0 l 503 0 l 619 71 l 619 0 l 736 0 l 736 639 l 649 768 l 213 768 m 213 188 l 213 199 l 358 349 l 619 349 l 619 106 l 267 106 l 213 188 m 736 -158 l 597 -158 l 736 0 l 633 14 l 514 -108 l 514 -151 l 625 -244 l 736 -244 l 736 -158 z "},"å":{"ha":833,"x_min":96,"x_max":736,"o":"m 213 768 l 213 665 l 619 665 l 619 454 l 313 454 l 96 229 l 96 174 l 213 0 l 503 0 l 619 71 l 619 0 l 736 0 l 736 639 l 649 768 l 213 768 m 213 188 l 213 199 l 358 349 l 619 349 l 619 106 l 267 106 l 213 188 m 381 1133 l 296 1047 l 296 922 l 381 838 l 504 838 l 593 922 l 593 1047 l 504 1133 l 381 1133 m 413 1061 l 475 1061 l 521 1018 l 521 953 l 475 910 l 413 910 l 368 953 l 368 1018 l 413 1061 z "},"ã":{"ha":833,"x_min":96,"x_max":736,"o":"m 213 768 l 213 665 l 619 665 l 619 454 l 313 454 l 96 229 l 96 174 l 213 0 l 503 0 l 619 71 l 619 0 l 736 0 l 736 639 l 649 768 l 213 768 m 213 188 l 213 199 l 358 349 l 619 349 l 619 106 l 267 106 l 213 188 m 676 997 l 568 932 l 311 1000 l 168 915 l 213 839 l 326 908 l 578 838 l 721 922 l 676 997 z "},"æ":{"ha":833,"x_min":-3,"x_max":836,"o":"m 110 738 l 110 638 l 361 638 l 361 436 l 206 436 l -3 221 l -3 167 l 110 0 l 361 0 l 408 96 l 472 0 l 724 0 l 821 100 l 763 185 l 682 100 l 526 100 l 472 181 l 472 335 l 607 335 l 836 572 l 724 738 l 472 738 l 424 686 l 389 738 l 110 738 m 472 593 l 515 638 l 669 638 l 707 583 l 565 436 l 472 436 l 472 593 m 110 181 l 110 192 l 249 335 l 361 335 l 361 167 l 319 100 l 161 100 l 110 181 z "},"b":{"ha":833,"x_min":111,"x_max":728,"o":"m 111 1039 l 111 0 l 222 0 l 222 67 l 336 0 l 614 0 l 728 117 l 728 569 l 614 739 l 333 739 l 222 671 l 222 1039 l 111 1039 m 222 592 l 267 638 l 561 638 l 615 557 l 615 146 l 574 101 l 222 101 l 222 592 z "},"c":{"ha":833,"x_min":111,"x_max":711,"o":"m 222 738 l 613 738 l 711 590 l 640 517 l 558 638 l 265 638 l 222 593 l 222 181 l 276 100 l 569 100 l 651 185 l 708 100 l 613 0 l 224 0 l 111 167 l 111 622 l 222 738 z "},"ć":{"ha":833,"x_min":111,"x_max":711,"o":"m 222 738 l 613 738 l 711 590 l 640 517 l 558 638 l 265 638 l 222 593 l 222 181 l 276 100 l 569 100 l 651 185 l 708 100 l 613 0 l 224 0 l 111 167 l 111 622 l 222 738 m 299 843 l 567 972 l 497 1067 l 253 907 l 299 843 z "},"č":{"ha":833,"x_min":111,"x_max":711,"o":"m 222 738 l 613 738 l 711 590 l 640 517 l 558 638 l 265 638 l 222 593 l 222 181 l 276 100 l 569 100 l 651 185 l 708 100 l 613 0 l 224 0 l 111 167 l 111 622 l 222 738 m 447 849 l 633 990 l 575 1054 l 415 957 l 258 1054 l 199 990 l 386 849 l 447 849 z "},"ç":{"ha":833,"x_min":111,"x_max":711,"o":"m 222 738 l 613 738 l 711 590 l 640 517 l 558 638 l 265 638 l 222 593 l 222 181 l 276 100 l 569 100 l 651 185 l 708 100 l 613 0 l 224 0 l 111 167 l 111 622 l 222 738 m 347 -144 l 486 -144 l 347 14 l 465 14 l 569 -94 l 569 -137 l 458 -231 l 347 -231 l 347 -144 z "},"ċ":{"ha":833,"x_min":111,"x_max":711,"o":"m 222 738 l 613 738 l 711 590 l 640 517 l 558 638 l 265 638 l 222 593 l 222 181 l 276 100 l 569 100 l 651 185 l 708 100 l 613 0 l 224 0 l 111 167 l 111 622 l 222 738 m 347 851 l 347 990 l 486 990 l 486 851 l 347 851 z "},"d":{"ha":833,"x_min":111,"x_max":726,"o":"m 614 1040 l 726 1040 l 726 0 l 614 0 l 614 67 l 503 0 l 226 0 l 111 168 l 111 621 l 224 739 l 501 739 l 614 672 l 614 1040 m 224 182 l 276 101 l 574 101 l 614 143 l 614 558 l 561 638 l 267 638 l 224 593 l 224 182 z "},"ð":{"ha":833,"x_min":92,"x_max":742,"o":"m 233 1024 l 201 932 l 360 876 l 257 772 l 326 704 l 444 824 l 574 688 l 613 547 l 424 660 l 190 572 l 92 308 l 190 46 l 425 -56 l 658 46 l 742 300 l 742 450 l 663 738 l 513 894 l 599 983 l 529 1051 l 433 954 l 233 1024 m 267 118 l 197 308 l 267 497 l 414 553 l 643 415 l 643 317 l 578 118 l 425 50 l 267 118 z "},"ď":{"ha":833,"x_min":111,"x_max":1015,"o":"m 614 1040 l 726 1040 l 726 0 l 614 0 l 614 67 l 503 0 l 226 0 l 111 168 l 111 621 l 224 739 l 501 739 l 614 672 l 614 1040 m 224 182 l 276 101 l 574 101 l 614 143 l 614 558 l 561 638 l 267 638 l 224 593 l 224 182 m 864 1125 l 1015 1101 l 907 779 l 813 801 l 864 1125 z "},"đ":{"ha":833,"x_min":111,"x_max":836,"o":"m 614 1040 l 726 1040 l 726 0 l 614 0 l 614 67 l 503 0 l 226 0 l 111 168 l 111 621 l 224 739 l 501 739 l 614 672 l 614 1040 m 224 182 l 276 101 l 574 101 l 614 143 l 614 558 l 561 638 l 267 638 l 224 593 l 224 182 m 836 844 l 475 844 l 475 944 l 836 944 l 836 844 z "},"e":{"ha":833,"x_min":108,"x_max":724,"o":"m 219 738 l 108 622 l 108 167 l 221 0 l 610 0 l 707 100 l 646 176 l 568 100 l 274 100 l 219 181 l 219 336 l 494 336 l 724 572 l 608 738 l 219 738 m 219 593 l 264 638 l 557 638 l 593 583 l 453 436 l 219 436 l 219 593 z "},"é":{"ha":833,"x_min":108,"x_max":724,"o":"m 219 738 l 108 622 l 108 167 l 221 0 l 610 0 l 707 100 l 646 176 l 568 100 l 274 100 l 219 181 l 219 336 l 494 336 l 724 572 l 608 738 l 219 738 m 219 593 l 264 638 l 557 638 l 593 583 l 453 436 l 219 436 l 219 593 m 296 825 l 564 954 l 494 1049 l 250 889 l 296 825 z "},"ě":{"ha":833,"x_min":108,"x_max":724,"o":"m 219 738 l 108 622 l 108 167 l 221 0 l 610 0 l 707 100 l 646 176 l 568 100 l 274 100 l 219 181 l 219 336 l 494 336 l 724 572 l 608 738 l 219 738 m 219 593 l 264 638 l 557 638 l 593 583 l 453 436 l 219 436 l 219 593 m 444 831 l 631 972 l 572 1036 l 413 939 l 256 1036 l 196 972 l 383 831 l 444 831 z "},"ê":{"ha":833,"x_min":108,"x_max":724,"o":"m 219 738 l 108 622 l 108 167 l 221 0 l 610 0 l 707 100 l 646 176 l 568 100 l 274 100 l 219 181 l 219 336 l 494 336 l 724 572 l 608 738 l 219 738 m 219 593 l 264 638 l 557 638 l 593 583 l 453 436 l 219 436 l 219 593 m 444 1024 l 383 1024 l 196 882 l 256 818 l 413 915 l 572 818 l 631 882 l 444 1024 z "},"ë":{"ha":833,"x_min":108,"x_max":724,"o":"m 219 738 l 108 622 l 108 167 l 221 0 l 610 0 l 707 100 l 646 176 l 568 100 l 274 100 l 219 181 l 219 336 l 494 336 l 724 572 l 608 738 l 219 738 m 219 593 l 264 638 l 557 638 l 593 583 l 453 436 l 219 436 l 219 593 m 192 831 l 192 983 l 344 983 l 344 831 l 192 831 m 483 831 l 483 983 l 636 983 l 636 831 l 483 831 z "},"ė":{"ha":833,"x_min":108,"x_max":724,"o":"m 219 738 l 108 622 l 108 167 l 221 0 l 610 0 l 707 100 l 646 176 l 568 100 l 274 100 l 219 181 l 219 336 l 494 336 l 724 572 l 608 738 l 219 738 m 219 593 l 264 638 l 557 638 l 593 583 l 453 436 l 219 436 l 219 593 m 344 833 l 344 972 l 483 972 l 483 833 l 344 833 z "},"è":{"ha":833,"x_min":108,"x_max":724,"o":"m 219 738 l 108 622 l 108 167 l 221 0 l 610 0 l 707 100 l 646 176 l 568 100 l 274 100 l 219 181 l 219 336 l 494 336 l 724 572 l 608 738 l 219 738 m 219 593 l 264 638 l 557 638 l 593 583 l 453 436 l 219 436 l 219 593 m 532 826 l 578 890 l 333 1050 l 264 956 l 532 826 z "},"ē":{"ha":833,"x_min":108,"x_max":724,"o":"m 219 738 l 108 622 l 108 167 l 221 0 l 610 0 l 707 100 l 646 176 l 568 100 l 274 100 l 219 181 l 219 336 l 494 336 l 724 572 l 608 738 l 219 738 m 219 593 l 264 638 l 557 638 l 593 583 l 453 436 l 219 436 l 219 593 m 596 832 l 232 832 l 232 932 l 596 932 l 596 832 z "},"ę":{"ha":833,"x_min":108,"x_max":724,"o":"m 219 738 l 108 622 l 108 167 l 221 0 l 610 0 l 707 100 l 646 176 l 568 100 l 274 100 l 219 181 l 219 336 l 494 336 l 724 572 l 608 738 l 219 738 m 219 593 l 264 638 l 557 638 l 593 583 l 453 436 l 219 436 l 219 593 m 469 -144 l 331 -144 l 469 14 l 367 28 l 247 -94 l 247 -137 l 358 -231 l 469 -231 l 469 -144 z "},"f":{"ha":833,"x_min":110,"x_max":724,"o":"m 347 972 l 221 842 l 221 569 l 110 569 l 110 469 l 221 469 l 221 0 l 332 0 l 332 469 l 607 469 l 607 569 l 332 569 l 332 810 l 393 872 l 607 872 l 653 804 l 724 876 l 656 972 l 347 972 z "},"g":{"ha":833,"x_min":108,"x_max":724,"o":"m 311 82 l 585 82 l 611 40 l 611 -71 l 494 -189 l 288 -189 l 232 -106 l 232 6 l 311 82 m 232 601 l 292 667 l 558 667 l 611 590 l 611 457 l 499 388 l 232 388 l 232 601 m 501 285 l 724 421 l 724 768 l 611 768 l 611 700 l 500 768 l 250 768 l 119 632 l 119 353 l 181 315 l 108 243 l 199 108 l 119 29 l 119 -117 l 236 -290 l 536 -290 l 724 -94 l 724 53 l 639 185 l 265 185 l 236 232 l 288 285 l 501 285 z "},"ğ":{"ha":833,"x_min":108,"x_max":724,"o":"m 311 82 l 585 82 l 611 40 l 611 -71 l 494 -189 l 288 -189 l 232 -106 l 232 6 l 311 82 m 232 601 l 292 667 l 558 667 l 611 590 l 611 457 l 499 388 l 232 388 l 232 601 m 501 285 l 724 421 l 724 768 l 611 768 l 611 700 l 500 768 l 250 768 l 119 632 l 119 353 l 181 315 l 108 243 l 199 108 l 119 29 l 119 -117 l 236 -290 l 536 -290 l 724 -94 l 724 53 l 639 185 l 265 185 l 236 232 l 288 285 l 501 285 m 165 954 l 165 1026 l 306 1026 l 306 897 l 472 897 l 472 1026 l 613 1026 l 613 954 l 474 814 l 306 814 l 165 954 z "},"ģ":{"ha":833,"x_min":108,"x_max":724,"o":"m 311 82 l 585 82 l 611 40 l 611 -71 l 494 -189 l 288 -189 l 232 -106 l 232 6 l 311 82 m 232 601 l 292 667 l 558 667 l 611 590 l 611 457 l 499 388 l 232 388 l 232 601 m 501 285 l 724 421 l 724 768 l 611 768 l 611 700 l 500 768 l 250 768 l 119 632 l 119 353 l 181 315 l 108 243 l 199 108 l 119 29 l 119 -117 l 236 -290 l 536 -290 l 724 -94 l 724 53 l 639 185 l 265 185 l 236 232 l 288 285 l 501 285 m 458 856 l 458 999 l 375 999 l 375 1074 l 442 1143 l 385 1189 l 306 1108 l 306 856 l 458 856 z "},"ġ":{"ha":833,"x_min":108,"x_max":724,"o":"m 311 82 l 585 82 l 611 40 l 611 -71 l 494 -189 l 288 -189 l 232 -106 l 232 6 l 311 82 m 232 601 l 292 667 l 558 667 l 611 590 l 611 457 l 499 388 l 232 388 l 232 601 m 501 285 l 724 421 l 724 768 l 611 768 l 611 700 l 500 768 l 250 768 l 119 632 l 119 353 l 181 315 l 108 243 l 199 108 l 119 29 l 119 -117 l 236 -290 l 536 -290 l 724 -94 l 724 53 l 639 185 l 265 185 l 236 232 l 288 285 l 501 285 m 319 815 l 319 954 l 458 954 l 458 815 l 319 815 z "},"h":{"ha":833,"x_min":110,"x_max":725,"o":"m 110 1040 l 221 1040 l 221 671 l 332 738 l 610 738 l 725 574 l 725 0 l 613 0 l 613 560 l 560 638 l 267 638 l 221 594 l 221 0 l 110 0 l 110 1040 z "},"ħ":{"ha":833,"x_min":0,"x_max":725,"o":"m 110 1040 l 221 1040 l 221 671 l 332 738 l 610 738 l 725 574 l 725 0 l 613 0 l 613 560 l 560 638 l 267 638 l 221 594 l 221 0 l 110 0 l 110 1040 m 361 843 l 0 843 l 0 943 l 361 943 l 361 843 z "},"i":{"ha":833,"x_min":110,"x_max":724,"o":"m 165 764 l 165 663 l 308 663 l 361 583 l 361 100 l 110 100 l 110 0 l 724 0 l 724 100 l 472 100 l 472 597 l 361 764 l 165 764 m 347 946 l 347 1085 l 486 1085 l 486 946 l 347 946 z "},"ı":{"ha":833,"x_min":110,"x_max":724,"o":"m 165 764 l 165 663 l 308 663 l 361 583 l 361 100 l 110 100 l 110 0 l 724 0 l 724 100 l 472 100 l 472 597 l 361 764 l 165 764 z "},"í":{"ha":833,"x_min":110,"x_max":724,"o":"m 165 764 l 165 663 l 308 663 l 361 583 l 361 100 l 110 100 l 110 0 l 724 0 l 724 100 l 472 100 l 472 597 l 361 764 l 165 764 m 299 938 l 567 1067 l 497 1161 l 253 1001 l 299 938 z "},"î":{"ha":833,"x_min":110,"x_max":724,"o":"m 165 764 l 165 663 l 308 663 l 361 583 l 361 100 l 110 100 l 110 0 l 724 0 l 724 100 l 472 100 l 472 597 l 361 764 l 165 764 m 447 1136 l 386 1136 l 199 994 l 258 931 l 415 1028 l 575 931 l 633 994 l 447 1136 z "},"ï":{"ha":833,"x_min":110,"x_max":724,"o":"m 165 764 l 165 663 l 308 663 l 361 583 l 361 100 l 110 100 l 110 0 l 724 0 l 724 100 l 472 100 l 472 597 l 361 764 l 165 764 m 194 943 l 194 1096 l 347 1096 l 347 943 l 194 943 m 486 943 l 486 1096 l 639 1096 l 639 943 l 486 943 z "},"ì":{"ha":833,"x_min":110,"x_max":724,"o":"m 165 764 l 165 663 l 308 663 l 361 583 l 361 100 l 110 100 l 110 0 l 724 0 l 724 100 l 472 100 l 472 597 l 361 764 l 165 764 m 535 939 l 581 1003 l 336 1163 l 267 1068 l 535 939 z "},"ĳ":{"ha":833,"x_min":108,"x_max":725,"o":"m 108 836 l 249 836 l 249 972 l 108 972 l 108 836 m 585 836 l 725 836 l 725 972 l 585 972 l 585 836 m 597 668 l 597 18 l 235 99 l 235 668 l 124 668 l 124 32 l 597 -89 l 597 -108 l 442 -271 l 292 -271 l 292 -371 l 483 -371 l 710 -137 l 710 668 l 597 668 z "},"ī":{"ha":833,"x_min":110,"x_max":724,"o":"m 165 764 l 165 663 l 308 663 l 361 583 l 361 100 l 110 100 l 110 0 l 724 0 l 724 100 l 472 100 l 472 597 l 361 764 l 165 764 m 599 944 l 235 944 l 235 1044 l 599 1044 l 599 944 z "},"į":{"ha":833,"x_min":110,"x_max":724,"o":"m 165 764 l 165 663 l 308 663 l 361 583 l 361 100 l 110 100 l 110 0 l 724 0 l 724 100 l 472 100 l 472 597 l 361 764 l 165 764 m 347 946 l 347 1085 l 486 1085 l 486 946 l 347 946 m 472 -144 l 333 -144 l 472 14 l 369 28 l 250 -94 l 250 -137 l 361 -231 l 472 -231 l 472 -144 z "},"j":{"ha":833,"x_min":194,"x_max":613,"o":"m 332 764 l 613 764 l 613 81 l 386 -153 l 194 -153 l 194 -53 l 344 -53 l 500 110 l 500 664 l 332 664 l 332 764 m 403 946 l 403 1085 l 542 1085 l 542 946 l 403 946 z "},"ȷ":{"ha":833,"x_min":194,"x_max":613,"o":"m 332 764 l 613 764 l 613 81 l 386 -153 l 194 -153 l 194 -53 l 344 -53 l 500 110 l 500 664 l 332 664 l 332 764 z "},"k":{"ha":833,"x_min":110,"x_max":725,"o":"m 110 1039 l 110 0 l 221 0 l 221 336 l 371 490 l 613 136 l 613 0 l 725 0 l 725 149 l 443 565 l 653 781 l 514 781 l 221 478 l 221 1039 l 110 1039 z "},"ķ":{"ha":833,"x_min":110,"x_max":725,"o":"m 110 1039 l 110 0 l 221 0 l 221 336 l 371 490 l 613 136 l 613 0 l 725 0 l 725 149 l 443 565 l 653 781 l 514 781 l 221 478 l 221 1039 l 110 1039 m 357 -390 l 524 -147 l 421 -92 l 281 -347 l 357 -390 z "},"l":{"ha":833,"x_min":108,"x_max":724,"o":"m 108 1039 l 108 939 l 317 939 l 317 165 l 429 0 l 722 0 l 724 100 l 482 100 l 429 179 l 429 972 l 317 1039 l 108 1039 z "},"ĺ":{"ha":833,"x_min":108,"x_max":724,"o":"m 108 1039 l 108 939 l 317 939 l 317 165 l 429 0 l 722 0 l 724 100 l 482 100 l 429 179 l 429 972 l 317 1039 l 108 1039 m 256 1117 l 524 1246 l 454 1340 l 210 1181 l 256 1117 z "},"ľ":{"ha":833,"x_min":108,"x_max":781,"o":"m 108 1039 l 108 939 l 317 939 l 317 165 l 429 0 l 722 0 l 724 100 l 482 100 l 429 179 l 429 972 l 317 1039 l 108 1039 m 629 1019 l 781 996 l 672 674 l 578 696 l 629 1019 z "},"ļ":{"ha":833,"x_min":108,"x_max":724,"o":"m 108 1039 l 108 939 l 317 939 l 317 165 l 429 0 l 722 0 l 724 100 l 482 100 l 429 179 l 429 972 l 317 1039 l 108 1039 m 454 -404 l 621 -161 l 518 -106 l 378 -361 l 454 -404 z "},"ł":{"ha":833,"x_min":67,"x_max":749,"o":"m 108 1039 l 108 939 l 317 939 l 317 165 l 429 0 l 722 0 l 724 100 l 482 100 l 429 179 l 429 972 l 317 1039 l 108 1039 m 667 889 l 67 22 l 147 -35 l 749 832 l 667 889 z "},"m":{"ha":833,"x_min":82,"x_max":753,"o":"m 82 738 l 82 0 l 193 0 l 193 592 l 236 638 l 310 638 l 363 558 l 363 385 l 475 385 l 475 592 l 517 638 l 588 638 l 640 558 l 640 0 l 753 0 l 753 572 l 640 738 l 586 738 l 426 642 l 363 738 l 304 738 l 193 671 l 193 738 l 82 738 z "},"n":{"ha":833,"x_min":110,"x_max":725,"o":"m 110 738 l 110 0 l 221 0 l 221 593 l 264 638 l 560 638 l 613 560 l 613 0 l 725 0 l 725 574 l 613 738 l 333 738 l 221 671 l 221 738 l 110 738 z "},"ń":{"ha":833,"x_min":110,"x_max":725,"o":"m 110 738 l 110 0 l 221 0 l 221 593 l 264 638 l 560 638 l 613 560 l 613 0 l 725 0 l 725 574 l 613 738 l 333 738 l 221 671 l 221 738 l 110 738 m 356 825 l 624 954 l 554 1049 l 310 889 l 356 825 z "},"ň":{"ha":833,"x_min":110,"x_max":725,"o":"m 110 738 l 110 0 l 221 0 l 221 593 l 264 638 l 560 638 l 613 560 l 613 0 l 725 0 l 725 574 l 613 738 l 333 738 l 221 671 l 221 738 l 110 738 m 504 831 l 690 972 l 632 1036 l 472 939 l 315 1036 l 256 972 l 443 831 l 504 831 z "},"ņ":{"ha":833,"x_min":110,"x_max":725,"o":"m 110 738 l 110 0 l 221 0 l 221 593 l 264 638 l 560 638 l 613 560 l 613 0 l 725 0 l 725 574 l 613 738 l 333 738 l 221 671 l 221 738 l 110 738 m 357 -390 l 524 -147 l 421 -92 l 281 -347 l 357 -390 z "},"ñ":{"ha":833,"x_min":110,"x_max":750,"o":"m 110 738 l 110 0 l 221 0 l 221 593 l 264 638 l 560 638 l 613 560 l 613 0 l 725 0 l 725 574 l 613 738 l 333 738 l 221 671 l 221 738 l 110 738 m 706 992 l 597 926 l 340 994 l 197 910 l 242 833 l 356 903 l 607 832 l 750 917 l 706 992 z "},"o":{"ha":833,"x_min":111,"x_max":726,"o":"m 222 738 l 615 738 l 726 571 l 726 115 l 615 0 l 224 0 l 111 167 l 111 622 l 222 738 m 221 181 l 276 100 l 571 100 l 613 144 l 613 558 l 560 638 l 264 638 l 221 592 l 221 181 z "},"ó":{"ha":833,"x_min":111,"x_max":726,"o":"m 222 738 l 615 738 l 726 571 l 726 115 l 615 0 l 224 0 l 111 167 l 111 622 l 222 738 m 221 181 l 276 100 l 571 100 l 613 144 l 613 558 l 560 638 l 264 638 l 221 592 l 221 181 m 300 826 l 568 956 l 499 1050 l 254 890 l 300 826 z "},"ô":{"ha":833,"x_min":111,"x_max":726,"o":"m 222 738 l 615 738 l 726 571 l 726 115 l 615 0 l 224 0 l 111 167 l 111 622 l 222 738 m 221 181 l 276 100 l 571 100 l 613 144 l 613 558 l 560 638 l 264 638 l 221 592 l 221 181 m 449 1025 l 388 1025 l 200 883 l 260 819 l 417 917 l 576 819 l 635 883 l 449 1025 z "},"ö":{"ha":833,"x_min":111,"x_max":726,"o":"m 222 738 l 615 738 l 726 571 l 726 115 l 615 0 l 224 0 l 111 167 l 111 622 l 222 738 m 221 181 l 276 100 l 571 100 l 613 144 l 613 558 l 560 638 l 264 638 l 221 592 l 221 181 m 196 832 l 196 985 l 349 985 l 349 832 l 196 832 m 488 832 l 488 985 l 640 985 l 640 832 l 488 832 z "},"ò":{"ha":833,"x_min":111,"x_max":726,"o":"m 222 738 l 615 738 l 726 571 l 726 115 l 615 0 l 224 0 l 111 167 l 111 622 l 222 738 m 221 181 l 276 100 l 571 100 l 613 144 l 613 558 l 560 638 l 264 638 l 221 592 l 221 181 m 536 828 l 582 892 l 338 1051 l 268 957 l 536 828 z "},"ő":{"ha":833,"x_min":111,"x_max":739,"o":"m 222 738 l 615 738 l 726 571 l 726 115 l 615 0 l 224 0 l 111 167 l 111 622 l 222 738 m 221 181 l 276 100 l 571 100 l 613 144 l 613 558 l 560 638 l 264 638 l 221 592 l 221 181 m 339 821 l 518 1057 l 410 1117 l 265 863 l 339 821 m 536 821 l 739 1038 l 638 1108 l 467 871 l 536 821 z "},"ø":{"ha":833,"x_min":111,"x_max":726,"o":"m 222 738 l 615 738 l 726 571 l 726 115 l 615 0 l 224 0 l 111 167 l 111 622 l 222 738 m 221 181 l 276 100 l 571 100 l 613 144 l 613 558 l 560 638 l 264 638 l 221 592 l 221 181 m 589 1079 l 683 1047 l 282 -132 l 189 -100 l 589 1079 z "},"õ":{"ha":833,"x_min":111,"x_max":726,"o":"m 222 738 l 615 738 l 726 571 l 726 115 l 615 0 l 224 0 l 111 167 l 111 622 l 222 738 m 221 181 l 276 100 l 571 100 l 613 144 l 613 558 l 560 638 l 264 638 l 221 592 l 221 181 m 650 993 l 542 928 l 285 996 l 142 911 l 186 835 l 300 904 l 551 833 l 694 918 l 650 993 z "},"œ":{"ha":833,"x_min":4,"x_max":829,"o":"m 115 738 l 4 622 l 4 167 l 117 0 l 365 0 l 431 69 l 476 0 l 717 0 l 814 100 l 757 185 l 675 100 l 531 100 l 476 181 l 476 336 l 601 336 l 829 572 l 717 738 l 476 738 l 410 669 l 365 738 l 115 738 m 117 181 l 117 592 l 158 638 l 311 638 l 365 558 l 365 144 l 322 100 l 171 100 l 117 181 m 476 593 l 519 638 l 663 638 l 700 583 l 558 436 l 476 436 l 476 593 z "},"p":{"ha":833,"x_min":110,"x_max":724,"o":"m 332 738 l 221 669 l 221 738 l 110 738 l 110 -300 l 221 -300 l 221 67 l 333 0 l 613 0 l 724 115 l 724 571 l 614 738 l 332 738 m 221 181 l 221 593 l 264 636 l 558 636 l 611 557 l 611 143 l 569 100 l 276 100 l 221 181 z "},"þ":{"ha":833,"x_min":110,"x_max":724,"o":"m 110 1039 l 110 -265 l 221 -265 l 221 67 l 335 0 l 611 0 l 724 118 l 724 569 l 611 739 l 332 739 l 221 671 l 221 1039 l 110 1039 m 221 593 l 265 638 l 558 638 l 613 557 l 613 146 l 571 101 l 221 101 l 221 593 z "},"q":{"ha":833,"x_min":110,"x_max":724,"o":"m 221 738 l 110 622 l 110 167 l 221 0 l 500 0 l 611 67 l 611 -300 l 724 -300 l 724 736 l 611 736 l 611 669 l 499 738 l 221 738 m 221 181 l 221 593 l 265 636 l 556 636 l 611 558 l 611 143 l 568 100 l 276 100 l 221 181 z "},"r":{"ha":833,"x_min":103,"x_max":731,"o":"m 103 738 l 103 638 l 189 638 l 243 558 l 243 100 l 103 100 l 103 0 l 550 0 l 550 100 l 354 100 l 354 572 l 415 638 l 606 638 l 647 575 l 731 632 l 658 738 l 372 738 l 296 658 l 164 738 l 103 738 z "},"ŕ":{"ha":833,"x_min":103,"x_max":731,"o":"m 103 738 l 103 638 l 189 638 l 243 558 l 243 100 l 103 100 l 103 0 l 550 0 l 550 100 l 354 100 l 354 572 l 415 638 l 606 638 l 647 575 l 731 632 l 658 738 l 372 738 l 296 658 l 164 738 l 103 738 m 394 825 l 663 954 l 593 1049 l 349 889 l 394 825 z "},"ř":{"ha":833,"x_min":103,"x_max":731,"o":"m 103 738 l 103 638 l 189 638 l 243 558 l 243 100 l 103 100 l 103 0 l 550 0 l 550 100 l 354 100 l 354 572 l 415 638 l 606 638 l 647 575 l 731 632 l 658 738 l 372 738 l 296 658 l 164 738 l 103 738 m 543 831 l 729 972 l 671 1036 l 511 939 l 354 1036 l 294 972 l 482 831 l 543 831 z "},"s":{"ha":833,"x_min":124,"x_max":710,"o":"m 229 738 l 613 738 l 685 631 l 617 558 l 561 640 l 278 640 l 235 603 l 235 497 l 288 422 l 615 422 l 710 281 l 710 104 l 615 0 l 179 0 l 124 86 l 192 157 l 229 100 l 569 100 l 599 133 l 599 264 l 558 321 l 229 321 l 124 481 l 124 635 l 229 738 z "},"ś":{"ha":833,"x_min":124,"x_max":710,"o":"m 229 738 l 613 738 l 685 631 l 617 558 l 561 640 l 278 640 l 235 603 l 235 497 l 288 422 l 615 422 l 710 281 l 710 104 l 615 0 l 179 0 l 124 86 l 192 157 l 229 100 l 569 100 l 599 133 l 599 264 l 558 321 l 229 321 l 124 481 l 124 635 l 229 738 m 303 825 l 571 954 l 501 1049 l 257 889 l 303 825 z "},"š":{"ha":833,"x_min":124,"x_max":710,"o":"m 229 738 l 613 738 l 685 631 l 617 558 l 561 640 l 278 640 l 235 603 l 235 497 l 288 422 l 615 422 l 710 281 l 710 104 l 615 0 l 179 0 l 124 86 l 192 157 l 229 100 l 569 100 l 599 133 l 599 264 l 558 321 l 229 321 l 124 481 l 124 635 l 229 738 m 451 831 l 638 972 l 579 1036 l 419 939 l 263 1036 l 203 972 l 390 831 l 451 831 z "},"ş":{"ha":833,"x_min":124,"x_max":710,"o":"m 229 738 l 613 738 l 685 631 l 617 558 l 561 640 l 278 640 l 235 603 l 235 497 l 288 422 l 615 422 l 710 281 l 710 104 l 615 0 l 179 0 l 124 86 l 192 157 l 229 100 l 569 100 l 599 133 l 599 264 l 558 321 l 229 321 l 124 481 l 124 635 l 229 738 m 328 -158 l 467 -158 l 328 0 l 446 0 l 550 -108 l 550 -151 l 439 -244 l 328 -244 l 328 -158 z "},"ș":{"ha":833,"x_min":124,"x_max":710,"o":"m 229 738 l 613 738 l 685 631 l 617 558 l 561 640 l 278 640 l 235 603 l 235 497 l 288 422 l 615 422 l 710 281 l 710 104 l 615 0 l 179 0 l 124 86 l 192 157 l 229 100 l 569 100 l 599 133 l 599 264 l 558 321 l 229 321 l 124 481 l 124 635 l 229 738 m 357 -390 l 524 -147 l 421 -92 l 281 -347 l 357 -390 z "},"ß":{"ha":833,"x_min":108,"x_max":724,"o":"m 332 972 l 108 742 l 108 0 l 221 0 l 221 711 l 347 844 l 517 738 l 318 581 l 318 468 l 519 468 l 613 332 l 613 151 l 564 100 l 396 100 l 396 0 l 606 0 l 724 121 l 724 344 l 572 569 l 449 569 l 614 694 l 614 811 l 332 972 z "},"t":{"ha":833,"x_min":139,"x_max":694,"o":"m 249 1039 l 360 1039 l 360 739 l 585 739 l 585 638 l 360 638 l 360 181 l 414 101 l 554 101 l 638 185 l 694 101 l 600 0 l 360 0 l 249 164 l 249 638 l 139 638 l 139 739 l 249 739 l 249 1039 z "},"ť":{"ha":833,"x_min":139,"x_max":731,"o":"m 249 1039 l 360 1039 l 360 739 l 585 739 l 585 638 l 360 638 l 360 181 l 414 101 l 554 101 l 638 185 l 694 101 l 600 0 l 360 0 l 249 164 l 249 638 l 139 638 l 139 739 l 249 739 l 249 1039 m 579 1233 l 731 1210 l 622 888 l 528 910 l 579 1233 z "},"ț":{"ha":833,"x_min":139,"x_max":694,"o":"m 249 1039 l 360 1039 l 360 739 l 585 739 l 585 638 l 360 638 l 360 181 l 414 101 l 554 101 l 638 185 l 694 101 l 600 0 l 360 0 l 249 164 l 249 638 l 139 638 l 139 739 l 249 739 l 249 1039 m 418 -390 l 585 -147 l 482 -92 l 342 -347 l 418 -390 z "},"u":{"ha":833,"x_min":110,"x_max":724,"o":"m 611 738 l 611 144 l 571 101 l 275 101 l 221 181 l 221 738 l 110 738 l 110 167 l 222 0 l 500 0 l 614 68 l 614 0 l 724 0 l 724 738 l 611 738 z "},"ú":{"ha":833,"x_min":110,"x_max":724,"o":"m 611 738 l 611 144 l 571 101 l 275 101 l 221 181 l 221 738 l 110 738 l 110 167 l 222 0 l 500 0 l 614 68 l 614 0 l 724 0 l 724 738 l 611 738 m 299 826 l 567 956 l 497 1050 l 253 890 l 299 826 z "},"û":{"ha":833,"x_min":110,"x_max":724,"o":"m 611 738 l 611 144 l 571 101 l 275 101 l 221 181 l 221 738 l 110 738 l 110 167 l 222 0 l 500 0 l 614 68 l 614 0 l 724 0 l 724 738 l 611 738 m 447 1025 l 386 1025 l 199 883 l 258 819 l 415 917 l 575 819 l 633 883 l 447 1025 z "},"ü":{"ha":833,"x_min":110,"x_max":724,"o":"m 611 738 l 611 144 l 571 101 l 275 101 l 221 181 l 221 738 l 110 738 l 110 167 l 222 0 l 500 0 l 614 68 l 614 0 l 724 0 l 724 738 l 611 738 m 194 832 l 194 985 l 347 985 l 347 832 l 194 832 m 486 832 l 486 985 l 639 985 l 639 832 l 486 832 z "},"ù":{"ha":833,"x_min":110,"x_max":724,"o":"m 611 738 l 611 144 l 571 101 l 275 101 l 221 181 l 221 738 l 110 738 l 110 167 l 222 0 l 500 0 l 614 68 l 614 0 l 724 0 l 724 738 l 611 738 m 535 828 l 581 892 l 336 1051 l 267 957 l 535 828 z "},"ű":{"ha":833,"x_min":110,"x_max":738,"o":"m 611 738 l 611 144 l 571 101 l 275 101 l 221 181 l 221 738 l 110 738 l 110 167 l 222 0 l 500 0 l 614 68 l 614 0 l 724 0 l 724 738 l 611 738 m 338 821 l 517 1057 l 408 1117 l 264 863 l 338 821 m 535 821 l 738 1038 l 636 1108 l 465 871 l 535 821 z "},"ū":{"ha":833,"x_min":110,"x_max":724,"o":"m 611 738 l 611 144 l 571 101 l 275 101 l 221 181 l 221 738 l 110 738 l 110 167 l 222 0 l 500 0 l 614 68 l 614 0 l 724 0 l 724 738 l 611 738 m 599 833 l 235 833 l 235 933 l 599 933 l 599 833 z "},"ų":{"ha":833,"x_min":110,"x_max":724,"o":"m 611 738 l 611 144 l 571 101 l 275 101 l 221 181 l 221 738 l 110 738 l 110 167 l 222 0 l 500 0 l 614 68 l 614 0 l 724 0 l 724 738 l 611 738 m 724 -158 l 585 -158 l 724 0 l 621 14 l 501 -108 l 501 -151 l 613 -244 l 724 -244 l 724 -158 z "},"ů":{"ha":833,"x_min":110,"x_max":724,"o":"m 611 738 l 611 144 l 571 101 l 275 101 l 221 181 l 221 738 l 110 738 l 110 167 l 222 0 l 500 0 l 614 68 l 614 0 l 724 0 l 724 738 l 611 738 m 353 1129 l 268 1043 l 268 918 l 353 833 l 476 833 l 565 918 l 565 1043 l 476 1129 l 353 1129 m 385 1057 l 447 1057 l 493 1014 l 493 949 l 447 906 l 385 906 l 340 949 l 340 1014 l 385 1057 z "},"v":{"ha":833,"x_min":110,"x_max":725,"o":"m 613 739 l 613 342 l 379 99 l 221 335 l 221 739 l 110 739 l 110 319 l 325 0 l 422 0 l 725 314 l 725 739 l 613 739 z "},"w":{"ha":833,"x_min":26,"x_max":808,"o":"m 697 738 l 697 229 l 572 101 l 568 101 l 474 240 l 474 738 l 361 738 l 361 200 l 267 101 l 260 101 l 138 283 l 138 738 l 26 738 l 26 269 l 208 0 l 307 0 l 431 126 l 514 0 l 615 0 l 808 200 l 808 738 l 697 738 z "},"ẃ":{"ha":833,"x_min":26,"x_max":808,"o":"m 697 738 l 697 229 l 572 101 l 568 101 l 474 240 l 474 738 l 361 738 l 361 200 l 267 101 l 260 101 l 138 283 l 138 738 l 26 738 l 26 269 l 208 0 l 307 0 l 431 126 l 514 0 l 615 0 l 808 200 l 808 738 l 697 738 m 299 826 l 567 956 l 497 1050 l 253 890 l 299 826 z "},"ŵ":{"ha":833,"x_min":26,"x_max":808,"o":"m 697 738 l 697 229 l 572 101 l 568 101 l 474 240 l 474 738 l 361 738 l 361 200 l 267 101 l 260 101 l 138 283 l 138 738 l 26 738 l 26 269 l 208 0 l 307 0 l 431 126 l 514 0 l 615 0 l 808 200 l 808 738 l 697 738 m 447 1025 l 386 1025 l 199 883 l 258 819 l 415 917 l 575 819 l 633 883 l 447 1025 z "},"ẅ":{"ha":833,"x_min":26,"x_max":808,"o":"m 697 738 l 697 229 l 572 101 l 568 101 l 474 240 l 474 738 l 361 738 l 361 200 l 267 101 l 260 101 l 138 283 l 138 738 l 26 738 l 26 269 l 208 0 l 307 0 l 431 126 l 514 0 l 615 0 l 808 200 l 808 738 l 697 738 m 194 832 l 194 985 l 347 985 l 347 832 l 194 832 m 486 832 l 486 985 l 639 985 l 639 832 l 486 832 z "},"ẁ":{"ha":833,"x_min":26,"x_max":808,"o":"m 697 738 l 697 229 l 572 101 l 568 101 l 474 240 l 474 738 l 361 738 l 361 200 l 267 101 l 260 101 l 138 283 l 138 738 l 26 738 l 26 269 l 208 0 l 307 0 l 431 126 l 514 0 l 615 0 l 808 200 l 808 738 l 697 738 m 535 828 l 581 892 l 336 1051 l 267 957 l 535 828 z "},"x":{"ha":833,"x_min":108,"x_max":725,"o":"m 613 738 l 613 604 l 449 436 l 301 436 l 219 556 l 219 738 l 108 738 l 108 542 l 246 338 l 246 335 l 108 193 l 108 0 l 219 0 l 219 167 l 382 335 l 532 335 l 613 215 l 613 0 l 725 0 l 725 229 l 586 433 l 725 575 l 725 738 l 613 738 z "},"y":{"ha":833,"x_min":110,"x_max":724,"o":"m 611 739 l 611 101 l 303 101 l 221 219 l 221 739 l 110 739 l 110 206 l 249 0 l 611 0 l 611 -37 l 453 -200 l 110 -200 l 110 -301 l 499 -301 l 724 -67 l 724 739 l 611 739 z "},"ý":{"ha":833,"x_min":110,"x_max":724,"o":"m 611 739 l 611 101 l 303 101 l 221 219 l 221 739 l 110 739 l 110 206 l 249 0 l 611 0 l 611 -37 l 453 -200 l 110 -200 l 110 -301 l 499 -301 l 724 -67 l 724 739 l 611 739 m 299 814 l 567 943 l 497 1038 l 253 878 l 299 814 z "},"ŷ":{"ha":833,"x_min":110,"x_max":724,"o":"m 611 739 l 611 101 l 303 101 l 221 219 l 221 739 l 110 739 l 110 206 l 249 0 l 611 0 l 611 -37 l 453 -200 l 110 -200 l 110 -301 l 499 -301 l 724 -67 l 724 739 l 611 739 m 447 1013 l 386 1013 l 199 871 l 258 807 l 415 904 l 575 807 l 633 871 l 447 1013 z "},"ÿ":{"ha":833,"x_min":110,"x_max":724,"o":"m 611 739 l 611 101 l 303 101 l 221 219 l 221 739 l 110 739 l 110 206 l 249 0 l 611 0 l 611 -37 l 453 -200 l 110 -200 l 110 -301 l 499 -301 l 724 -67 l 724 739 l 611 739 m 194 819 l 194 972 l 347 972 l 347 819 l 194 819 m 486 819 l 486 972 l 639 972 l 639 819 l 486 819 z "},"ỳ":{"ha":833,"x_min":110,"x_max":724,"o":"m 611 739 l 611 101 l 303 101 l 221 219 l 221 739 l 110 739 l 110 206 l 249 0 l 611 0 l 611 -37 l 453 -200 l 110 -200 l 110 -301 l 499 -301 l 724 -67 l 724 739 l 611 739 m 535 815 l 581 879 l 336 1039 l 267 944 l 535 815 z "},"z":{"ha":833,"x_min":110,"x_max":724,"o":"m 110 738 l 110 638 l 611 638 l 611 621 l 110 100 l 110 0 l 724 0 l 724 100 l 250 100 l 724 590 l 724 738 l 110 738 z "},"ź":{"ha":833,"x_min":110,"x_max":724,"o":"m 110 738 l 110 638 l 611 638 l 611 621 l 110 100 l 110 0 l 724 0 l 724 100 l 250 100 l 724 590 l 724 738 l 110 738 m 299 814 l 567 943 l 497 1038 l 253 878 l 299 814 z "},"ž":{"ha":833,"x_min":110,"x_max":724,"o":"m 110 738 l 110 638 l 611 638 l 611 621 l 110 100 l 110 0 l 724 0 l 724 100 l 250 100 l 724 590 l 724 738 l 110 738 m 447 819 l 633 961 l 575 1025 l 415 928 l 258 1025 l 199 961 l 386 819 l 447 819 z "},"ż":{"ha":833,"x_min":110,"x_max":724,"o":"m 110 738 l 110 638 l 611 638 l 611 621 l 110 100 l 110 0 l 724 0 l 724 100 l 250 100 l 724 590 l 724 738 l 110 738 m 347 822 l 347 961 l 486 961 l 486 822 l 347 822 z "},"ª":{"ha":833,"x_min":96,"x_max":736,"o":"m 213 768 l 213 665 l 619 665 l 619 454 l 313 454 l 96 229 l 96 174 l 213 0 l 503 0 l 619 71 l 619 0 l 736 0 l 736 639 l 649 768 l 213 768 m 213 188 l 213 199 l 358 349 l 619 349 l 619 106 l 267 106 l 213 188 z "},"º":{"ha":833,"x_min":111,"x_max":726,"o":"m 222 738 l 615 738 l 726 571 l 726 115 l 615 0 l 224 0 l 111 167 l 111 622 l 222 738 m 221 181 l 276 100 l 571 100 l 613 144 l 613 558 l 560 638 l 264 638 l 221 592 l 221 181 z "},"Δ":{"ha":833,"x_min":54,"x_max":785,"o":"m 504 972 l 329 972 l 54 0 l 785 0 l 504 972 m 426 881 l 651 101 l 188 101 l 407 881 l 426 881 z "},"μ":{"ha":833,"x_min":103,"x_max":758,"o":"m 718 694 l 717 128 l 758 0 l 669 0 l 638 63 l 578 0 l 328 0 l 215 65 l 215 -300 l 103 -300 l 104 694 l 217 694 l 215 181 l 268 100 l 564 100 l 604 143 l 606 694 l 718 694 z "},"π":{"ha":833,"x_min":36,"x_max":797,"o":"m 797 742 l 36 742 l 36 640 l 165 640 l 165 0 l 265 0 l 265 640 l 569 640 l 569 196 l 657 0 l 757 0 l 671 189 l 671 640 l 797 640 l 797 742 z "},"⁄":{"ha":833,"x_min":35,"x_max":810,"o":"m 64 233 l 810 590 l 782 639 l 35 282 l 64 233 z "},"⅟":{"ha":833,"x_min":35,"x_max":810,"o":"m 64 233 l 810 590 l 782 639 l 35 282 l 64 233 m 217 1083 l 88 951 l 133 885 l 208 963 l 208 663 l 82 663 l 82 583 l 417 583 l 417 663 l 293 663 l 293 1083 l 217 1083 z "},"½":{"ha":833,"x_min":35,"x_max":810,"o":"m 64 233 l 810 590 l 782 639 l 35 282 l 64 233 m 217 1083 l 88 951 l 133 885 l 208 963 l 208 663 l 82 663 l 82 583 l 417 583 l 417 663 l 293 663 l 293 1083 l 217 1083 m 428 278 l 358 208 l 403 143 l 460 200 l 586 200 l 619 149 l 363 -115 l 363 -222 l 697 -222 l 697 -143 l 446 -143 l 446 -140 l 697 119 l 697 189 l 638 278 l 428 278 z "},"⅓":{"ha":833,"x_min":35,"x_max":810,"o":"m 64 233 l 810 590 l 782 639 l 35 282 l 64 233 m 217 1083 l 88 951 l 133 885 l 208 963 l 208 663 l 82 663 l 82 583 l 417 583 l 417 663 l 293 663 l 293 1083 l 217 1083 m 360 278 l 360 200 l 588 200 l 465 74 l 465 13 l 572 13 l 613 -47 l 613 -126 l 596 -143 l 360 -143 l 360 -222 l 631 -222 l 696 -153 l 696 -32 l 624 76 l 576 76 l 696 200 l 696 278 l 360 278 z "},"⅔":{"ha":833,"x_min":35,"x_max":810,"o":"m 64 233 l 810 590 l 782 639 l 35 282 l 64 233 m 82 1082 l 82 1004 l 310 1004 l 188 878 l 188 817 l 294 817 l 335 757 l 335 678 l 318 661 l 82 661 l 82 582 l 353 582 l 418 651 l 418 772 l 346 881 l 299 881 l 418 1004 l 418 1082 l 82 1082 m 568 278 l 338 40 l 413 -68 l 593 -68 l 593 -222 l 676 -222 l 676 -68 l 718 -68 l 718 10 l 676 10 l 676 278 l 568 278 m 438 32 l 593 192 l 593 10 l 451 10 l 438 32 z "},"¼":{"ha":833,"x_min":35,"x_max":810,"o":"m 64 233 l 810 590 l 782 639 l 35 282 l 64 233 m 217 1083 l 88 951 l 133 885 l 208 963 l 208 663 l 82 663 l 82 583 l 417 583 l 417 663 l 293 663 l 293 1083 l 217 1083 m 568 278 l 338 40 l 413 -68 l 593 -68 l 593 -222 l 676 -222 l 676 -68 l 718 -68 l 718 10 l 676 10 l 676 278 l 568 278 m 438 32 l 593 192 l 593 10 l 451 10 l 438 32 z "},"¾":{"ha":833,"x_min":35,"x_max":810,"o":"m 64 233 l 810 590 l 782 639 l 35 282 l 64 233 m 82 1082 l 82 1004 l 310 1004 l 188 878 l 188 817 l 294 817 l 335 757 l 335 678 l 318 661 l 82 661 l 82 582 l 353 582 l 418 651 l 418 772 l 346 881 l 299 881 l 418 1004 l 418 1082 l 82 1082 m 568 278 l 338 40 l 413 -68 l 593 -68 l 593 -222 l 676 -222 l 676 -68 l 718 -68 l 718 10 l 676 10 l 676 278 l 568 278 m 438 32 l 593 192 l 593 10 l 451 10 l 438 32 z "},"⅛":{"ha":833,"x_min":35,"x_max":810,"o":"m 64 233 l 810 590 l 782 639 l 35 282 l 64 233 m 217 1083 l 88 951 l 133 885 l 208 963 l 208 663 l 82 663 l 82 583 l 417 583 l 417 663 l 293 663 l 293 1083 l 217 1083 m 472 272 l 360 156 l 360 93 l 415 11 l 419 11 l 360 -46 l 360 -135 l 424 -228 l 608 -228 l 694 -136 l 694 -57 l 636 31 l 694 92 l 694 189 l 639 272 l 472 272 m 444 108 l 444 132 l 506 194 l 596 194 l 611 174 l 611 115 l 572 78 l 464 78 l 444 108 m 444 -119 l 444 -72 l 513 0 l 563 0 l 611 -72 l 611 -111 l 572 -149 l 464 -149 l 444 -119 z "},"⅜":{"ha":833,"x_min":35,"x_max":810,"o":"m 64 233 l 810 590 l 782 639 l 35 282 l 64 233 m 82 1082 l 82 1004 l 310 1004 l 188 878 l 188 817 l 294 817 l 335 757 l 335 678 l 318 661 l 82 661 l 82 582 l 353 582 l 418 651 l 418 772 l 346 881 l 299 881 l 418 1004 l 418 1082 l 82 1082 m 568 278 l 338 40 l 413 -68 l 593 -68 l 593 -222 l 676 -222 l 676 -68 l 718 -68 l 718 10 l 676 10 l 676 278 l 568 278 m 438 32 l 593 192 l 593 10 l 451 10 l 438 32 z "},"⅝":{"ha":833,"x_min":35,"x_max":810,"o":"m 64 233 l 810 590 l 782 639 l 35 282 l 64 233 m 82 1083 l 82 915 l 124 854 l 293 854 l 335 796 l 335 679 l 317 661 l 82 661 l 82 583 l 353 583 l 418 653 l 418 811 l 335 933 l 169 933 l 167 940 l 167 1006 l 404 1006 l 404 1083 l 82 1083 m 472 272 l 360 156 l 360 93 l 415 11 l 419 11 l 360 -46 l 360 -135 l 424 -228 l 608 -228 l 694 -136 l 694 -57 l 636 31 l 694 92 l 694 189 l 639 272 l 472 272 m 444 108 l 444 132 l 506 194 l 596 194 l 611 174 l 611 115 l 572 78 l 464 78 l 444 108 m 444 -119 l 444 -72 l 513 0 l 563 0 l 611 -72 l 611 -111 l 572 -149 l 464 -149 l 444 -119 z "},"⅞":{"ha":833,"x_min":35,"x_max":810,"o":"m 64 233 l 810 590 l 782 639 l 35 282 l 64 233 m 82 1083 l 82 1006 l 333 1006 l 333 1000 l 138 800 l 138 583 l 221 583 l 221 774 l 417 974 l 417 1083 l 82 1083 m 472 272 l 360 156 l 360 93 l 415 11 l 419 11 l 360 -46 l 360 -135 l 424 -228 l 608 -228 l 694 -136 l 694 -57 l 636 31 l 694 92 l 694 189 l 639 272 l 472 272 m 444 108 l 444 132 l 506 194 l 596 194 l 611 174 l 611 115 l 572 78 l 464 78 l 444 108 m 444 -119 l 444 -72 l 513 0 l 563 0 l 611 -72 l 611 -111 l 572 -149 l 464 -149 l 444 -119 z "},"₀":{"ha":833,"x_min":249,"x_max":583,"o":"m 314 500 l 249 435 l 249 93 l 313 0 l 521 0 l 583 67 l 583 408 l 522 500 l 314 500 m 333 408 l 346 422 l 479 422 l 500 392 l 500 382 l 333 210 l 333 408 m 333 107 l 333 111 l 500 285 l 500 93 l 486 79 l 353 79 l 333 107 z "},"₁":{"ha":833,"x_min":249,"x_max":583,"o":"m 383 500 l 254 368 l 300 301 l 375 379 l 375 79 l 249 79 l 249 0 l 583 0 l 583 79 l 460 79 l 460 500 l 383 500 z "},"₂":{"ha":833,"x_min":247,"x_max":586,"o":"m 317 500 l 247 431 l 292 365 l 349 422 l 475 422 l 508 371 l 251 107 l 251 0 l 586 0 l 586 79 l 335 79 l 335 82 l 586 342 l 586 411 l 526 500 l 317 500 z "},"₃":{"ha":833,"x_min":249,"x_max":585,"o":"m 249 500 l 249 422 l 476 422 l 354 296 l 354 235 l 461 235 l 501 175 l 501 96 l 485 79 l 249 79 l 249 0 l 519 0 l 585 69 l 585 190 l 513 299 l 465 299 l 585 422 l 585 500 l 249 500 z "},"₄":{"ha":833,"x_min":226,"x_max":607,"o":"m 457 500 l 226 263 l 301 154 l 482 154 l 482 0 l 565 0 l 565 154 l 607 154 l 607 232 l 565 232 l 565 500 l 457 500 m 326 254 l 482 414 l 482 232 l 340 232 l 326 254 z "},"₅":{"ha":833,"x_min":249,"x_max":585,"o":"m 249 500 l 249 332 l 290 271 l 460 271 l 501 213 l 501 96 l 483 78 l 249 78 l 249 0 l 519 0 l 585 69 l 585 228 l 501 350 l 336 350 l 333 357 l 333 422 l 571 422 l 571 500 l 249 500 z "},"₆":{"ha":833,"x_min":249,"x_max":583,"o":"m 313 501 l 249 435 l 249 94 l 304 0 l 496 0 l 583 90 l 583 244 l 547 299 l 363 299 l 333 269 l 333 408 l 346 422 l 528 422 l 528 501 l 313 501 m 333 110 l 333 158 l 394 221 l 500 221 l 500 117 l 464 79 l 354 79 l 333 110 z "},"₇":{"ha":833,"x_min":249,"x_max":583,"o":"m 249 500 l 249 422 l 500 422 l 500 417 l 304 217 l 304 0 l 388 0 l 388 190 l 583 390 l 583 500 l 249 500 z "},"₈":{"ha":833,"x_min":249,"x_max":583,"o":"m 361 500 l 249 383 l 249 321 l 304 239 l 308 239 l 249 182 l 249 93 l 313 0 l 497 0 l 583 92 l 583 171 l 525 258 l 583 319 l 583 417 l 528 500 l 361 500 m 333 336 l 333 360 l 394 422 l 485 422 l 500 401 l 500 343 l 461 306 l 353 306 l 333 336 m 333 108 l 333 156 l 401 228 l 451 228 l 500 156 l 500 117 l 461 79 l 353 79 l 333 108 z "},"₉":{"ha":833,"x_min":249,"x_max":583,"o":"m 292 500 l 249 457 l 249 340 l 329 221 l 500 221 l 500 136 l 450 79 l 276 79 l 276 0 l 485 0 l 583 111 l 583 379 l 503 500 l 292 500 m 333 356 l 333 422 l 460 422 l 500 364 l 500 299 l 371 299 l 333 356 z "},"⁰":{"ha":833,"x_min":249,"x_max":583,"o":"m 314 1000 l 249 935 l 249 593 l 313 500 l 521 500 l 583 567 l 583 908 l 522 1000 l 314 1000 m 333 908 l 346 922 l 479 922 l 500 892 l 500 882 l 333 710 l 333 908 m 333 607 l 333 611 l 500 785 l 500 593 l 486 579 l 353 579 l 333 607 z "},"¹":{"ha":833,"x_min":249,"x_max":583,"o":"m 383 1000 l 254 868 l 300 801 l 375 879 l 375 579 l 249 579 l 249 500 l 583 500 l 583 579 l 460 579 l 460 1000 l 383 1000 z "},"²":{"ha":833,"x_min":247,"x_max":586,"o":"m 317 1000 l 247 931 l 292 865 l 349 922 l 475 922 l 508 871 l 251 607 l 251 500 l 586 500 l 586 579 l 335 579 l 335 582 l 586 842 l 586 911 l 526 1000 l 317 1000 z "},"³":{"ha":833,"x_min":249,"x_max":585,"o":"m 249 1000 l 249 922 l 476 922 l 354 796 l 354 735 l 461 735 l 501 675 l 501 596 l 485 579 l 249 579 l 249 500 l 519 500 l 585 569 l 585 690 l 513 799 l 465 799 l 585 922 l 585 1000 l 249 1000 z "},"⁴":{"ha":833,"x_min":226,"x_max":607,"o":"m 457 1000 l 226 763 l 301 654 l 482 654 l 482 500 l 565 500 l 565 654 l 607 654 l 607 732 l 565 732 l 565 1000 l 457 1000 m 326 754 l 482 914 l 482 732 l 340 732 l 326 754 z "},"⁵":{"ha":833,"x_min":249,"x_max":585,"o":"m 249 1000 l 249 832 l 290 771 l 460 771 l 501 713 l 501 596 l 483 578 l 249 578 l 249 500 l 519 500 l 585 569 l 585 728 l 501 850 l 336 850 l 333 857 l 333 922 l 571 922 l 571 1000 l 249 1000 z "},"⁶":{"ha":833,"x_min":249,"x_max":583,"o":"m 313 1003 l 249 936 l 249 596 l 304 501 l 496 501 l 583 592 l 583 746 l 547 800 l 363 800 l 333 771 l 333 910 l 346 924 l 528 924 l 528 1003 l 313 1003 m 333 611 l 333 660 l 394 722 l 500 722 l 500 618 l 464 581 l 354 581 l 333 611 z "},"⁷":{"ha":833,"x_min":249,"x_max":583,"o":"m 249 1000 l 249 922 l 500 922 l 500 917 l 304 717 l 304 500 l 388 500 l 388 690 l 583 890 l 583 1000 l 249 1000 z "},"⁸":{"ha":833,"x_min":249,"x_max":583,"o":"m 361 1000 l 249 883 l 249 821 l 304 739 l 308 739 l 249 682 l 249 593 l 313 500 l 497 500 l 583 592 l 583 671 l 525 758 l 583 819 l 583 917 l 528 1000 l 361 1000 m 333 836 l 333 860 l 394 922 l 485 922 l 500 901 l 500 843 l 461 806 l 353 806 l 333 836 m 333 608 l 333 656 l 401 728 l 451 728 l 500 656 l 500 617 l 461 579 l 353 579 l 333 608 z "},"⁹":{"ha":833,"x_min":249,"x_max":583,"o":"m 292 1000 l 249 957 l 249 840 l 329 721 l 500 721 l 500 636 l 450 579 l 276 579 l 276 500 l 485 500 l 583 611 l 583 879 l 503 1000 l 292 1000 m 333 856 l 333 922 l 460 922 l 500 864 l 500 799 l 371 799 l 333 856 z "},"﻿":{"ha":0,"x_min":0,"x_max":0,"o":""},"\r":{"ha":833,"x_min":0,"x_max":0,"o":""}," ":{"ha":833,"x_min":0,"x_max":0,"o":""}," ":{"ha":833,"x_min":0,"x_max":0,"o":""},".":{"ha":833,"x_min":319,"x_max":514,"o":"m 319 0 l 319 194 l 514 194 l 514 0 l 319 0 z "},",":{"ha":833,"x_min":319,"x_max":514,"o":"m 319 185 l 319 0 l 403 0 l 403 -144 l 336 -214 l 393 -301 l 514 -179 l 514 185 l 319 185 z "},":":{"ha":833,"x_min":319,"x_max":514,"o":"m 319 706 l 514 706 l 514 511 l 319 511 l 319 706 m 319 233 l 514 233 l 514 39 l 319 39 l 319 233 z "},";":{"ha":833,"x_min":319,"x_max":514,"o":"m 319 511 l 319 706 l 514 706 l 514 511 l 319 511 m 319 153 l 319 -29 l 385 -29 l 385 -111 l 328 -169 l 396 -269 l 514 -154 l 514 153 l 319 153 z "},"…":{"ha":833,"x_min":28,"x_max":806,"o":"m 28 0 l 28 167 l 194 167 l 194 0 l 28 0 m 333 0 l 333 167 l 500 167 l 500 0 l 333 0 m 639 0 l 639 167 l 806 167 l 806 0 l 639 0 z "},"!":{"ha":833,"x_min":344,"x_max":489,"o":"m 489 103 l 344 103 l 344 -25 l 489 -25 l 489 103 m 361 269 l 475 269 l 475 972 l 361 972 l 361 269 z "},"¡":{"ha":833,"x_min":344,"x_max":489,"o":"m 344 786 l 489 786 l 489 914 l 344 914 l 344 786 m 472 619 l 358 619 l 358 -83 l 472 -83 l 472 619 z "},"?":{"ha":833,"x_min":54,"x_max":779,"o":"m 221 972 l 54 800 l 108 714 l 263 872 l 554 872 l 653 728 l 358 424 l 358 269 l 472 269 l 472 397 l 779 718 l 610 972 l 221 972 m 344 -29 l 489 -29 l 489 99 l 344 99 l 344 -29 z "},"¿":{"ha":833,"x_min":54,"x_max":779,"o":"m 613 -29 l 779 143 l 725 229 l 571 71 l 279 71 l 181 215 l 475 519 l 475 674 l 361 674 l 361 546 l 54 225 l 224 -29 l 613 -29 m 489 972 l 344 972 l 344 844 l 489 844 l 489 972 z "},"·":{"ha":833,"x_min":319,"x_max":514,"o":"m 319 319 l 319 514 l 514 514 l 514 319 l 319 319 z "},"•":{"ha":833,"x_min":313,"x_max":521,"o":"m 372 521 l 313 460 l 313 372 l 372 313 l 460 313 l 521 372 l 521 460 l 460 521 l 372 521 z "},"*":{"ha":833,"x_min":144,"x_max":689,"o":"m 363 750 l 363 560 l 181 618 l 144 513 l 326 454 l 214 299 l 304 233 l 417 389 l 529 233 l 619 299 l 508 454 l 689 513 l 654 618 l 472 560 l 472 750 l 363 750 z "},"#":{"ha":833,"x_min":53,"x_max":781,"o":"m 285 335 l 340 638 l 546 638 l 492 335 l 285 335 m 781 739 l 667 739 l 710 972 l 607 972 l 567 739 l 358 739 l 401 972 l 300 972 l 258 739 l 128 739 l 128 638 l 240 638 l 183 335 l 53 335 l 53 233 l 165 233 l 122 0 l 225 0 l 267 233 l 471 233 l 429 0 l 531 0 l 575 233 l 706 233 l 706 335 l 593 335 l 650 638 l 781 638 l 781 739 z "},"‾":{"ha":833,"x_min":0,"x_max":833,"o":"m 833 1111 l 0 1111 l 0 1211 l 833 1211 l 833 1111 z "},"/":{"ha":833,"x_min":150,"x_max":683,"o":"m 589 1079 l 683 1047 l 243 -246 l 150 -214 l 589 1079 z "},"\\":{"ha":833,"x_min":150,"x_max":683,"o":"m 244 1079 l 683 -214 l 590 -246 l 150 1047 l 244 1079 z "},"-":{"ha":833,"x_min":179,"x_max":654,"o":"m 654 367 l 179 367 l 179 467 l 654 467 l 654 367 z "},"–":{"ha":833,"x_min":28,"x_max":806,"o":"m 806 367 l 28 367 l 28 467 l 806 467 l 806 367 z "},"—":{"ha":833,"x_min":0,"x_max":833,"o":"m 833 367 l 0 367 l 0 467 l 833 467 l 833 367 z "},"_":{"ha":833,"x_min":56,"x_max":778,"o":"m 778 -169 l 56 -169 l 56 -69 l 778 -69 l 778 -169 z "},"‗":{"ha":833,"x_min":56,"x_max":778,"o":"m 778 -169 l 56 -169 l 56 -69 l 778 -69 l 778 -169 m 778 -325 l 56 -325 l 56 -225 l 778 -225 l 778 -325 z "},"(":{"ha":833,"x_min":207,"x_max":626,"o":"m 556 1104 l 207 743 l 207 90 l 556 -271 l 626 -200 l 318 119 l 318 714 l 626 1033 l 556 1104 z "},")":{"ha":833,"x_min":206,"x_max":628,"o":"m 281 1104 l 206 1033 l 515 714 l 515 119 l 206 -200 l 281 -271 l 628 90 l 628 743 l 281 1104 z "},"{":{"ha":833,"x_min":140,"x_max":693,"o":"m 456 1088 l 386 1014 l 386 671 l 140 417 l 386 163 l 386 -181 l 456 -254 l 693 -254 l 693 -151 l 500 -151 l 500 192 l 279 417 l 500 642 l 500 985 l 693 985 l 693 1088 l 456 1088 z "},"}":{"ha":833,"x_min":140,"x_max":693,"o":"m 140 1088 l 140 985 l 338 985 l 338 642 l 554 417 l 338 192 l 338 -151 l 140 -151 l 140 -254 l 378 -254 l 447 -181 l 447 163 l 693 417 l 447 671 l 447 1014 l 378 1088 l 140 1088 z "},"[":{"ha":833,"x_min":222,"x_max":611,"o":"m 222 1088 l 222 -254 l 611 -254 l 611 -151 l 333 -151 l 333 985 l 611 985 l 611 1088 l 222 1088 z "},"]":{"ha":833,"x_min":221,"x_max":613,"o":"m 221 1088 l 221 982 l 500 982 l 500 -149 l 221 -149 l 221 -254 l 613 -254 l 613 1088 l 221 1088 z "},"‚":{"ha":833,"x_min":319,"x_max":514,"o":"m 319 185 l 319 0 l 403 0 l 403 -144 l 336 -214 l 393 -301 l 514 -179 l 514 185 l 319 185 z "},"„":{"ha":833,"x_min":194,"x_max":639,"o":"m 444 185 l 444 0 l 528 0 l 528 -144 l 461 -214 l 518 -301 l 639 -179 l 639 185 l 444 185 m 194 185 l 194 0 l 278 0 l 278 -144 l 211 -214 l 268 -301 l 389 -179 l 389 185 l 194 185 z "},"“":{"ha":833,"x_min":83,"x_max":528,"o":"m 278 694 l 278 879 l 194 879 l 194 1024 l 261 1093 l 204 1181 l 83 1058 l 83 694 l 278 694 m 528 694 l 528 879 l 444 879 l 444 1024 l 511 1093 l 454 1181 l 333 1058 l 333 694 l 528 694 z "},"”":{"ha":833,"x_min":306,"x_max":750,"o":"m 556 1042 l 556 857 l 639 857 l 639 713 l 572 643 l 629 556 l 750 678 l 750 1042 l 556 1042 m 306 1042 l 306 857 l 389 857 l 389 713 l 322 643 l 379 556 l 500 678 l 500 1042 l 306 1042 z "},"‘":{"ha":833,"x_min":319,"x_max":514,"o":"m 514 565 l 514 750 l 431 750 l 431 894 l 497 964 l 440 1051 l 319 929 l 319 565 l 514 565 z "},"’":{"ha":833,"x_min":319,"x_max":514,"o":"m 319 972 l 319 788 l 403 788 l 403 643 l 336 574 l 393 486 l 514 608 l 514 972 l 319 972 z "},"«":{"ha":833,"x_min":139,"x_max":696,"o":"m 696 126 l 507 415 l 696 707 l 646 738 l 410 450 l 410 381 l 646 96 l 696 126 m 425 126 l 236 415 l 425 707 l 375 738 l 139 450 l 139 381 l 375 96 l 425 126 z "},"»":{"ha":833,"x_min":139,"x_max":696,"o":"m 139 126 l 189 96 l 425 381 l 425 450 l 189 738 l 139 707 l 328 415 l 139 126 m 410 126 l 460 96 l 696 381 l 696 450 l 460 738 l 410 707 l 599 415 l 410 126 z "},"‹":{"ha":833,"x_min":274,"x_max":560,"o":"m 560 126 l 371 415 l 560 707 l 510 738 l 274 450 l 274 381 l 510 96 l 560 126 z "},"›":{"ha":833,"x_min":274,"x_max":560,"o":"m 464 417 l 274 126 l 325 96 l 560 382 l 560 450 l 325 738 l 274 707 l 464 417 z "},"\"":{"ha":833,"x_min":235,"x_max":599,"o":"m 235 601 l 347 601 l 347 972 l 235 972 l 235 601 m 486 601 l 599 601 l 599 972 l 486 972 l 486 601 z "},"'":{"ha":833,"x_min":361,"x_max":474,"o":"m 361 601 l 474 601 l 474 972 l 361 972 l 361 601 z "},"@":{"ha":833,"x_min":4,"x_max":829,"o":"m 268 906 l 4 647 l 4 139 l 218 -144 l 633 -144 l 633 -44 l 271 -44 l 117 153 l 117 618 l 313 806 l 543 806 l 717 651 l 717 247 l 633 247 l 633 508 l 521 610 l 361 610 l 214 461 l 214 304 l 326 151 l 728 151 l 829 217 l 829 685 l 596 906 l 268 906 m 319 326 l 319 432 l 393 510 l 514 510 l 514 247 l 374 247 l 319 326 z "},"&":{"ha":833,"x_min":25,"x_max":808,"o":"m 250 972 l 138 854 l 138 768 l 274 567 l 25 308 l 25 131 l 114 0 l 488 0 l 586 104 l 657 0 l 778 0 l 657 175 l 808 329 l 808 471 l 613 471 l 613 371 l 703 371 l 600 261 l 404 554 l 633 792 l 633 861 l 556 972 l 250 972 m 232 807 l 294 872 l 506 872 l 532 831 l 346 640 l 232 807 m 138 146 l 138 279 l 331 481 l 529 188 l 446 100 l 167 100 l 138 146 z "},"¶":{"ha":833,"x_min":71,"x_max":763,"o":"m 199 1065 l 71 935 l 71 488 l 196 301 l 347 301 l 424 346 l 424 -111 l 524 -111 l 524 910 l 663 910 l 663 -111 l 763 -111 l 763 1065 l 199 1065 z "},"§":{"ha":833,"x_min":144,"x_max":689,"o":"m 250 1072 l 144 972 l 144 829 l 210 732 l 144 668 l 144 494 l 250 335 l 536 335 l 578 278 l 578 133 l 549 100 l 250 100 l 213 157 l 144 86 l 200 0 l 594 0 l 689 104 l 689 294 l 632 378 l 689 440 l 689 629 l 593 771 l 308 771 l 256 846 l 256 938 l 299 972 l 540 972 l 596 894 l 664 965 l 592 1072 l 250 1072 m 308 436 l 256 511 l 256 638 l 294 671 l 536 671 l 578 614 l 578 468 l 549 436 l 308 436 z "},"©":{"ha":833,"x_min":25,"x_max":808,"o":"m 278 715 l 567 715 l 667 568 l 596 493 l 514 615 l 322 615 l 278 571 l 278 365 l 333 285 l 524 285 l 607 371 l 664 285 l 568 185 l 279 185 l 167 353 l 167 600 l 278 715 m 251 838 l 25 611 l 25 279 l 251 56 l 576 56 l 808 279 l 808 611 l 576 838 l 251 838 z "},"®":{"ha":833,"x_min":139,"x_max":694,"o":"m 299 972 l 139 811 l 139 575 l 299 417 l 529 417 l 694 575 l 694 811 l 529 972 l 299 972 m 325 874 l 492 874 l 563 783 l 563 738 l 501 663 l 558 590 l 558 524 l 479 524 l 479 582 l 419 658 l 353 658 l 353 524 l 274 524 l 274 822 l 325 874 m 353 801 l 353 704 l 468 704 l 483 756 l 483 772 l 453 801 l 353 801 z "},"™":{"ha":833,"x_min":11,"x_max":822,"o":"m 11 899 l 11 824 l 122 824 l 163 764 l 163 417 l 246 417 l 246 775 l 165 824 l 361 824 l 361 417 l 446 417 l 446 738 l 546 589 l 546 586 l 635 586 l 635 682 l 739 790 l 739 417 l 822 417 l 822 899 l 739 899 l 554 708 l 476 824 l 476 899 l 11 899 z "},"°":{"ha":833,"x_min":268,"x_max":565,"o":"m 353 972 l 268 886 l 268 761 l 353 676 l 476 676 l 565 761 l 565 886 l 476 972 l 353 972 m 385 900 l 447 900 l 493 857 l 493 792 l 447 749 l 385 749 l 340 792 l 340 857 l 385 900 z "},"|":{"ha":833,"x_min":361,"x_max":472,"o":"m 361 -222 l 361 1056 l 472 1056 l 472 -222 l 361 -222 z "},"¦":{"ha":833,"x_min":361,"x_max":472,"o":"m 472 1056 l 361 1056 l 361 569 l 472 569 l 472 1056 m 472 264 l 361 264 l 361 -222 l 472 -222 l 472 264 z "},"†":{"ha":833,"x_min":179,"x_max":654,"o":"m 367 0 l 367 972 l 467 972 l 467 0 l 367 0 m 654 594 l 179 594 l 179 694 l 654 694 l 654 594 z "},"‡":{"ha":833,"x_min":179,"x_max":654,"o":"m 367 0 l 367 972 l 467 972 l 467 0 l 367 0 m 654 594 l 179 594 l 179 694 l 654 694 l 654 594 m 654 261 l 179 261 l 179 361 l 654 361 l 654 261 z "},"Ⓚ":{"ha":833,"x_min":0,"x_max":833,"o":"m 417 0 q 255 33 331 0 q 122 122 179 65 q 33 255 65 179 q 0 417 0 331 q 33 578 0 503 q 122 711 65 654 q 255 801 179 768 q 417 833 331 833 q 578 801 503 833 q 711 711 654 768 q 801 578 768 654 q 833 417 833 503 q 801 255 833 331 q 711 122 768 179 q 578 33 654 65 q 417 0 503 0 m 417 104 q 575 146 504 104 q 688 258 646 188 q 729 417 729 329 q 688 575 729 504 q 575 688 646 646 q 417 729 504 729 q 258 688 329 729 q 146 575 188 646 q 104 417 104 504 q 146 258 104 329 q 258 146 188 188 q 417 104 329 104 m 378 418 l 597 243 l 472 243 l 314 367 l 378 418 m 597 590 l 378 418 l 314 468 l 471 590 l 597 590 m 315 590 l 315 244 l 236 306 l 236 529 l 315 590 z "},"₿":{"ha":833,"x_min":124,"x_max":738,"o":"m 124 972 l 124 0 l 626 0 l 738 68 l 738 379 l 608 569 l 553 569 l 724 750 l 724 878 l 658 972 l 124 972 m 235 872 l 613 872 l 613 776 l 413 569 l 235 569 l 235 872 m 235 468 l 556 468 l 626 368 l 626 100 l 235 100 l 235 468 m 250 872 l 361 872 l 361 1136 l 250 1136 l 250 872 m 472 872 l 583 872 l 583 1136 l 472 1136 l 472 872 m 250 -167 l 361 -167 l 361 85 l 250 85 l 250 -167 m 472 -167 l 583 -167 l 583 85 l 472 85 l 472 -167 z "},"¢":{"ha":833,"x_min":125,"x_max":726,"o":"m 238 738 l 125 622 l 125 167 l 238 0 l 376 0 l 376 -201 l 488 -201 l 488 0 l 626 0 l 724 100 l 665 185 l 585 100 l 290 100 l 238 181 l 238 593 l 279 638 l 574 638 l 654 517 l 726 590 l 626 738 l 488 738 l 488 944 l 376 944 l 376 738 l 238 738 z "},"¤":{"ha":833,"x_min":124,"x_max":710,"o":"m 639 764 l 539 664 l 510 693 l 324 693 l 294 664 l 194 764 l 124 693 l 224 593 l 194 564 l 194 381 l 224 349 l 124 251 l 194 181 l 294 278 l 324 249 l 510 249 l 539 278 l 639 181 l 710 251 l 610 349 l 639 381 l 639 564 l 610 593 l 710 693 l 639 764 m 468 599 l 542 525 l 542 419 l 468 346 l 363 346 l 292 419 l 292 525 l 363 599 l 468 599 z "},"$":{"ha":833,"x_min":110,"x_max":724,"o":"m 579 100 l 222 100 l 179 158 l 110 86 l 169 0 l 361 0 l 361 -194 l 475 -194 l 475 0 l 626 0 l 724 101 l 724 392 l 625 539 l 275 539 l 221 619 l 221 824 l 263 867 l 558 867 l 615 783 l 686 854 l 613 968 l 475 968 l 475 1107 l 361 1107 l 361 968 l 221 968 l 110 851 l 110 606 l 221 439 l 571 439 l 613 381 l 613 129 l 579 100 z "},"€":{"ha":833,"x_min":88,"x_max":746,"o":"m 256 826 l 297 872 l 593 872 l 668 763 l 739 836 l 647 972 l 257 972 l 144 857 l 144 628 l 88 628 l 88 528 l 144 528 l 144 428 l 88 428 l 88 328 l 144 328 l 144 167 l 256 0 l 647 0 l 746 100 l 686 186 l 606 100 l 310 100 l 256 181 l 256 328 l 583 328 l 583 428 l 256 428 l 256 528 l 583 528 l 583 628 l 256 628 l 256 826 z "},"₺":{"ha":833,"x_min":107,"x_max":726,"o":"m 217 1039 l 328 1039 l 328 781 l 553 864 l 553 763 l 328 679 l 328 611 l 553 696 l 553 594 l 328 510 l 328 181 l 382 101 l 522 101 l 669 324 l 726 240 l 568 0 l 328 0 l 217 164 l 217 471 l 107 431 l 107 531 l 217 571 l 217 638 l 107 596 l 107 697 l 217 739 l 217 1039 z "},"£":{"ha":833,"x_min":85,"x_max":749,"o":"m 322 972 l 208 800 l 208 539 l 113 539 l 113 439 l 208 439 l 208 179 l 154 100 l 85 100 l 85 0 l 747 0 l 747 100 l 275 100 l 322 171 l 322 439 l 588 439 l 588 539 l 322 539 l 322 793 l 378 872 l 638 872 l 638 771 l 749 771 l 749 972 l 322 972 z "},"¥":{"ha":833,"x_min":110,"x_max":724,"o":"m 613 972 l 724 972 l 724 744 l 472 483 l 472 0 l 361 0 l 361 471 l 110 844 l 110 972 l 221 972 l 221 857 l 414 569 l 417 569 l 613 774 l 613 972 m 668 468 l 668 368 l 151 368 l 151 468 l 668 468 m 668 296 l 668 196 l 151 196 l 151 296 l 668 296 z "},"+":{"ha":833,"x_min":149,"x_max":685,"o":"m 367 685 l 367 467 l 149 467 l 149 367 l 367 367 l 367 150 l 467 150 l 467 367 l 685 367 l 685 467 l 467 467 l 467 685 l 367 685 z "},"−":{"ha":833,"x_min":165,"x_max":668,"o":"m 668 467 l 165 467 l 165 367 l 668 367 l 668 467 z "},"×":{"ha":833,"x_min":192,"x_max":642,"o":"m 571 642 l 417 489 l 263 642 l 192 571 l 346 417 l 192 264 l 264 193 l 417 346 l 571 192 l 642 263 l 488 417 l 642 569 l 571 642 z "},"÷":{"ha":833,"x_min":165,"x_max":668,"o":"m 668 467 l 165 467 l 165 367 l 668 367 l 668 467 m 390 704 l 353 667 l 353 610 l 390 572 l 444 572 l 483 610 l 483 667 l 444 704 l 390 704 m 389 261 l 353 224 l 353 167 l 389 129 l 444 129 l 485 167 l 485 224 l 444 261 l 389 261 z "},"=":{"ha":833,"x_min":158,"x_max":675,"o":"m 158 588 l 675 588 l 675 488 l 158 488 l 158 588 m 158 344 l 675 344 l 675 244 l 158 244 l 158 344 z "},"≠":{"ha":833,"x_min":158,"x_max":675,"o":"m 631 747 l 292 43 l 201 85 l 542 790 l 631 747 m 158 588 l 675 588 l 675 488 l 158 488 l 158 588 m 158 344 l 675 344 l 675 244 l 158 244 l 158 344 z "},">":{"ha":833,"x_min":182,"x_max":651,"o":"m 251 890 l 651 503 l 651 443 l 249 54 l 182 128 l 538 474 l 182 817 l 251 890 z "},"<":{"ha":833,"x_min":182,"x_max":651,"o":"m 582 890 l 651 817 l 296 474 l 651 128 l 585 54 l 182 443 l 182 503 l 582 890 z "},"≥":{"ha":833,"x_min":143,"x_max":692,"o":"m 535 576 l 143 399 l 185 307 l 692 535 l 692 617 l 192 839 l 147 747 l 535 576 m 692 221 l 143 215 l 143 111 l 692 111 l 692 221 z "},"≤":{"ha":833,"x_min":142,"x_max":690,"o":"m 299 576 l 686 747 l 642 839 l 142 617 l 142 535 l 649 307 l 690 399 l 299 576 m 142 221 l 142 111 l 690 111 l 690 215 l 142 221 z "},"±":{"ha":833,"x_min":149,"x_max":685,"o":"m 668 211 l 165 211 l 165 111 l 668 111 l 668 211 m 367 801 l 367 583 l 149 583 l 149 483 l 367 483 l 367 267 l 467 267 l 467 483 l 685 483 l 685 583 l 467 583 l 467 801 l 367 801 z "},"≈":{"ha":833,"x_min":131,"x_max":703,"o":"m 651 671 l 703 583 l 551 492 l 299 564 l 182 492 l 131 579 l 282 671 l 538 601 l 651 671 m 651 342 l 703 254 l 551 163 l 299 235 l 182 163 l 131 250 l 282 342 l 538 272 l 651 342 z "},"~":{"ha":833,"x_min":68,"x_max":765,"o":"m 721 514 l 540 426 l 290 518 l 68 411 l 111 319 l 297 408 l 543 315 l 765 422 l 721 514 z "},"¬":{"ha":833,"x_min":144,"x_max":689,"o":"m 689 508 l 144 508 l 144 407 l 578 407 l 578 153 l 689 153 l 689 508 z "},"^":{"ha":833,"x_min":96,"x_max":739,"o":"m 414 1010 l 647 618 l 739 660 l 456 1167 l 374 1167 l 96 667 l 188 622 l 414 1010 z "},"∞":{"ha":833,"x_min":42,"x_max":792,"o":"m 792 622 l 625 782 l 531 782 l 403 694 l 303 782 l 169 782 l 42 694 l 42 432 l 169 310 l 289 310 l 431 406 l 531 310 l 678 310 l 792 386 l 792 622 m 542 694 l 604 694 l 715 589 l 715 428 l 665 396 l 551 396 l 481 468 l 481 656 l 542 694 m 181 694 l 279 694 l 403 579 l 403 481 l 276 396 l 190 396 l 118 468 l 118 656 l 181 694 z "},"∫":{"ha":833,"x_min":88,"x_max":746,"o":"m 746 1254 l 718 1154 l 601 1154 l 535 1085 l 408 -222 l 272 -364 l 88 -364 l 115 -264 l 232 -264 l 299 -194 l 425 1113 l 561 1254 l 746 1254 z "},"∏":{"ha":833,"x_min":97,"x_max":738,"o":"m 738 1014 l 97 1014 l 97 935 l 232 935 l 232 -68 l 321 -56 l 321 935 l 515 935 l 515 -68 l 606 -56 l 606 935 l 738 935 l 738 1014 z "},"∑":{"ha":833,"x_min":117,"x_max":717,"o":"m 717 1014 l 117 1014 l 117 910 l 476 431 l 117 0 l 117 -100 l 717 -100 l 717 0 l 224 0 l 556 386 l 556 482 l 224 914 l 717 914 l 717 1014 z "},"√":{"ha":833,"x_min":132,"x_max":979,"o":"m 979 1185 l 979 1085 l 813 1085 l 521 0 l 336 0 l 132 489 l 229 544 l 415 100 l 433 100 l 725 1185 l 979 1185 z "},"∂":{"ha":833,"x_min":92,"x_max":742,"o":"m 233 1024 l 201 932 l 360 876 l 444 824 l 574 688 l 613 547 l 424 660 l 190 572 l 92 308 l 190 46 l 425 -56 l 658 46 l 742 300 l 742 450 l 663 738 l 513 894 l 433 954 l 233 1024 m 267 118 l 197 308 l 267 497 l 414 553 l 643 415 l 643 317 l 578 118 l 425 50 l 267 118 z "},"%":{"ha":833,"x_min":0,"x_max":833,"o":"m 119 972 l 57 907 l 57 813 l 119 749 l 214 749 l 281 813 l 281 907 l 214 972 l 119 972 m 742 994 l 0 43 l 83 -24 l 833 928 l 742 994 m 618 222 l 554 158 l 554 64 l 618 0 l 711 0 l 776 65 l 776 157 l 711 222 l 618 222 z "},"‰":{"ha":833,"x_min":0,"x_max":833,"o":"m 119 972 l 57 907 l 57 813 l 119 749 l 214 749 l 281 813 l 281 907 l 214 972 l 119 972 m 794 740 l 0 422 l 36 328 l 833 650 l 794 740 m 618 222 l 554 158 l 554 64 l 618 0 l 711 0 l 776 65 l 776 157 l 711 222 l 618 222 m 269 222 l 206 158 l 206 64 l 269 0 l 363 0 l 428 65 l 428 157 l 363 222 l 269 222 z "},"∀":{"ha":833,"x_min":110,"x_max":724,"o":"m 110 233 l 336 0 l 724 0 l 724 972 l 613 972 l 613 504 l 221 504 l 221 972 l 110 972 l 110 233 m 221 261 l 221 403 l 613 403 l 613 100 l 375 100 l 221 261 z "},"↑":{"ha":833,"x_min":-1,"x_max":835,"o":"m 835 540 l 761 471 l 418 826 l 72 471 l -1 538 l 388 940 l 447 940 l 835 540 m 367 868 l 467 868 l 467 135 l 367 135 l 367 868 z "},"↗":{"ha":833,"x_min":107,"x_max":733,"o":"m 725 169 l 624 172 l 632 667 l 136 660 l 132 760 l 692 769 l 733 726 l 725 169 m 625 733 l 696 663 l 178 143 l 107 214 l 625 733 z "},"→":{"ha":833,"x_min":28,"x_max":833,"o":"m 433 890 l 833 503 l 833 443 l 431 54 l 364 128 l 719 474 l 364 817 l 433 890 m 761 422 l 28 422 l 28 522 l 761 522 l 761 422 z "},"↘":{"ha":833,"x_min":110,"x_max":736,"o":"m 136 160 l 139 261 l 633 253 l 626 749 l 726 753 l 736 193 l 693 151 l 136 160 m 700 260 l 629 189 l 110 707 l 181 778 l 700 260 z "},"↓":{"ha":833,"x_min":-1,"x_max":835,"o":"m -1 456 l 72 525 l 415 169 l 761 525 l 835 458 l 446 56 l 386 56 l -1 456 m 467 128 l 367 128 l 367 861 l 467 861 l 467 128 z "},"↙":{"ha":833,"x_min":118,"x_max":744,"o":"m 126 749 l 228 746 l 219 251 l 715 258 l 719 158 l 160 149 l 118 192 l 126 749 m 226 185 l 156 256 l 674 775 l 744 704 l 226 185 z "},"←":{"ha":833,"x_min":0,"x_max":806,"o":"m 400 890 l 469 817 l 114 474 l 469 128 l 403 54 l 0 443 l 0 503 l 400 890 m 72 422 l 72 522 l 806 522 l 806 422 l 72 422 z "},"↖":{"ha":833,"x_min":115,"x_max":742,"o":"m 715 758 l 713 657 l 218 665 l 225 169 l 125 165 l 115 725 l 158 767 l 715 758 m 151 658 l 222 729 l 742 211 l 671 140 l 151 658 z "},"↔":{"ha":833,"x_min":15,"x_max":819,"o":"m 232 694 l 301 621 l 129 454 l 301 286 l 235 213 l 15 424 l 15 483 l 232 694 m 88 403 l 88 503 l 753 503 l 753 403 l 88 403 m 606 218 l 536 292 l 706 456 l 536 621 l 603 694 l 819 486 l 819 426 l 606 218 z "},"↕":{"ha":833,"x_min":175,"x_max":657,"o":"m 175 231 l 249 300 l 415 128 l 583 300 l 657 233 l 446 14 l 386 14 l 175 231 m 467 86 l 367 86 l 367 751 l 467 751 l 467 86 m 651 604 l 578 535 l 414 704 l 249 535 l 175 601 l 383 818 l 443 818 l 651 604 z "},"◌":{"ha":833,"x_min":-167,"x_max":1000,"o":"m 489 1067 q 453 1069 471 1068 q 417 1069 435 1069 l 414 1069 l 414 1021 l 417 1021 q 451 1020 433 1021 q 483 1018 468 1019 l 489 1067 m 275 1001 q 310 1012 293 1008 q 346 1018 328 1015 l 338 1064 q 301 1059 319 1063 q 264 1050 282 1056 l 275 1001 m 638 1028 q 565 1050 606 1042 l 553 1004 q 587 994 569 1000 q 619 982 604 989 l 638 1028 m 147 950 q 178 966 163 958 q 210 981 193 974 l 192 1025 q 156 1010 174 1018 q 124 990 139 1001 l 147 950 m 769 951 q 739 974 756 963 q 707 994 722 985 l 682 951 q 740 913 713 935 l 769 951 m 38 864 q 63 887 50 875 q 89 911 75 899 l 60 947 q 31 924 46 936 q 3 897 17 913 l 38 864 m 878 844 q 853 874 867 860 q 828 901 840 888 l 793 868 q 817 842 806 854 q 839 815 829 829 l 878 844 m -47 753 q -28 783 -39 768 q -8 811 -18 797 l -47 840 q -69 808 -58 825 q -90 776 -79 792 l -47 753 m 956 714 q 940 748 947 732 q 921 782 932 764 l 878 757 q 896 727 888 743 q 910 694 904 711 l 956 714 m -100 622 q -90 657 -96 640 q -79 689 -85 674 l -124 708 q -136 672 -131 690 q -147 636 -142 654 l -100 622 m 994 567 q 989 605 992 586 q 979 642 986 624 l 932 629 q 941 594 938 611 q 946 561 944 578 l 994 567 m -118 486 q -117 521 -118 504 q -114 554 -115 538 l -162 561 q -166 524 -165 543 q -167 486 -167 506 l -167 485 l -118 485 l -118 486 m 994 411 q 999 449 997 431 q 1000 486 1000 468 l 1000 490 l 951 490 l 951 486 q 951 452 951 469 q 949 417 950 435 l 994 411 m -100 347 q -108 380 -104 363 q -114 415 -111 397 l -162 408 q -156 372 -160 390 q -147 333 -151 353 l -100 347 m 956 263 q 969 299 963 281 q 981 335 976 317 l 935 349 q 924 315 931 331 q 911 282 918 299 l 956 263 m -46 218 q -62 249 -54 233 q -76 281 -69 265 l -121 261 q -106 226 -114 243 q -89 193 -97 208 l -46 218 m 881 131 q 902 163 892 147 q 922 194 913 179 l 881 221 q 861 190 871 204 q 842 163 851 175 l 881 131 m 40 107 q 15 133 26 119 q -7 160 4 147 l -46 131 q -22 101 -35 115 q 6 72 -8 86 l 40 107 m 774 24 q 803 48 789 35 q 829 75 817 61 l 794 110 q 770 85 783 96 q 742 63 757 74 l 774 24 m 151 22 q 120 41 135 31 q 93 61 106 51 l 64 22 q 94 1 79 13 q 125 -19 110 -10 l 151 22 m 640 -51 q 708 -19 676 -36 l 686 24 q 653 7 669 15 q 621 -7 638 -1 l 640 -51 m 279 -31 q 247 -20 264 -26 q 213 -7 229 -14 l 193 -54 q 231 -67 213 -61 q 268 -78 249 -72 l 279 -31 m 493 -93 q 531 -86 513 -90 q 569 -78 550 -82 l 556 -31 q 522 -38 539 -35 q 488 -44 506 -42 l 493 -93 m 417 -97 l 417 -49 q 383 -47 400 -49 q 347 -44 365 -46 l 342 -93 q 379 -96 361 -94 q 417 -97 397 -97 z "},"◊":{"ha":833,"x_min":103,"x_max":731,"o":"m 469 960 l 360 960 l 103 479 l 360 0 l 469 0 l 731 481 l 469 960 m 419 892 l 633 478 l 419 68 l 414 68 l 200 478 l 414 892 l 419 892 z "},"─":{"ha":833,"x_min":-7,"x_max":840,"o":"m 840 542 l 840 431 l -7 431 l -7 542 l 840 542 z "},"│":{"ha":833,"x_min":361,"x_max":472,"o":"m 472 1389 l 472 -694 l 361 -694 l 361 1389 l 472 1389 z "},"┌":{"ha":833,"x_min":361,"x_max":840,"o":"m 840 542 l 840 431 l 472 431 l 472 -694 l 361 -694 l 361 542 l 840 542 z "},"┐":{"ha":833,"x_min":-7,"x_max":472,"o":"m 472 542 l 472 -694 l 361 -694 l 361 431 l -7 431 l -7 542 l 472 542 z "},"└":{"ha":833,"x_min":361,"x_max":840,"o":"m 472 1389 l 472 542 l 840 542 l 840 431 l 361 431 l 361 1389 l 472 1389 z "},"┘":{"ha":833,"x_min":-7,"x_max":472,"o":"m 472 1389 l 472 431 l -7 431 l -7 542 l 361 542 l 361 1389 l 472 1389 z "},"├":{"ha":833,"x_min":361,"x_max":840,"o":"m 472 1389 l 472 542 l 840 542 l 840 431 l 472 431 l 472 -694 l 361 -694 l 361 1389 l 472 1389 z "},"┤":{"ha":833,"x_min":-7,"x_max":472,"o":"m 472 1389 l 472 -694 l 361 -694 l 361 431 l -7 431 l -7 542 l 361 542 l 361 1389 l 472 1389 z "},"┬":{"ha":833,"x_min":-7,"x_max":840,"o":"m 840 542 l 840 431 l 472 431 l 472 -694 l 361 -694 l 361 431 l -7 431 l -7 542 l 840 542 z "},"┴":{"ha":833,"x_min":-7,"x_max":840,"o":"m 472 1389 l 472 542 l 840 542 l 840 431 l -7 431 l -7 542 l 361 542 l 361 1389 l 472 1389 z "},"┼":{"ha":833,"x_min":-7,"x_max":840,"o":"m 472 1389 l 472 542 l 840 542 l 840 431 l 472 431 l 472 -694 l 361 -694 l 361 431 l -7 431 l -7 542 l 361 542 l 361 1389 l 472 1389 z "},"̈":{"ha":0,"x_min":194,"x_max":639,"o":"m 194 875 l 194 1028 l 347 1028 l 347 875 l 194 875 m 486 875 l 486 1028 l 639 1028 l 639 875 l 486 875 z "},"̇":{"ha":0,"x_min":347,"x_max":486,"o":"m 347 897 l 347 1036 l 486 1036 l 486 897 l 347 897 z "},"̀":{"ha":0,"x_min":267,"x_max":581,"o":"m 535 901 l 581 965 l 336 1125 l 267 1031 l 535 901 z "},"́":{"ha":0,"x_min":253,"x_max":567,"o":"m 299 901 l 567 1031 l 497 1125 l 253 965 l 299 901 z "},"̋":{"ha":0,"x_min":188,"x_max":661,"o":"m 261 815 l 440 1051 l 332 1111 l 188 857 l 261 815 m 458 815 l 661 1032 l 560 1103 l 389 865 l 458 815 z "},"̂":{"ha":0,"x_min":199,"x_max":633,"o":"m 447 1053 l 386 1053 l 199 911 l 258 847 l 415 944 l 575 847 l 633 911 l 447 1053 z "},"̌":{"ha":0,"x_min":199,"x_max":633,"o":"m 447 928 l 633 1069 l 575 1133 l 415 1036 l 258 1133 l 199 1069 l 386 928 l 447 928 z "},"̆":{"ha":0,"x_min":193,"x_max":640,"o":"m 193 1039 l 193 1111 l 333 1111 l 333 982 l 500 982 l 500 1111 l 640 1111 l 640 1039 l 501 899 l 333 899 l 193 1039 z "},"̊":{"ha":0,"x_min":268,"x_max":565,"o":"m 353 1111 l 268 1025 l 268 900 l 353 815 l 476 815 l 565 900 l 565 1025 l 476 1111 l 353 1111 m 385 1039 l 447 1039 l 493 996 l 493 931 l 447 888 l 385 888 l 340 931 l 340 996 l 385 1039 z "},"̃":{"ha":0,"x_min":140,"x_max":693,"o":"m 649 1108 l 540 1043 l 283 1111 l 140 1026 l 185 950 l 299 1019 l 550 949 l 693 1033 l 649 1108 z "},"̄":{"ha":0,"x_min":235,"x_max":599,"o":"m 599 1011 l 235 1011 l 235 1111 l 599 1111 l 599 1011 z "},"̅":{"ha":0,"x_min":0,"x_max":833,"o":"m 833 1111 l 0 1111 l 0 1211 l 833 1211 l 833 1111 z "},"̍":{"ha":0,"x_min":361,"x_max":472,"o":"m 361 722 l 361 1028 l 472 1028 l 472 722 l 361 722 z "},"̎":{"ha":0,"x_min":250,"x_max":583,"o":"m 250 722 l 250 1028 l 361 1028 l 361 722 l 250 722 m 472 722 l 472 1028 l 583 1028 l 583 722 l 472 722 z "},"̐":{"ha":0,"x_min":193,"x_max":640,"o":"m 193 1039 l 193 1111 l 306 1111 l 306 982 l 528 982 l 528 1111 l 640 1111 l 640 1039 l 501 899 l 333 899 l 193 1039 m 347 1076 l 347 1215 l 486 1215 l 486 1076 l 347 1076 z "},"̒":{"ha":0,"x_min":319,"x_max":472,"o":"m 472 736 l 472 879 l 389 879 l 389 954 l 456 1024 l 399 1069 l 319 989 l 319 736 l 472 736 z "},"̓":{"ha":0,"x_min":319,"x_max":514,"o":"m 319 1111 l 319 926 l 403 926 l 403 782 l 336 713 l 393 625 l 514 747 l 514 1111 l 319 1111 z "},"̔":{"ha":0,"x_min":319,"x_max":514,"o":"m 514 1111 l 319 1111 l 319 747 l 440 625 l 497 713 l 431 782 l 431 926 l 514 926 l 514 1111 z "},"̖":{"ha":0,"x_min":267,"x_max":581,"o":"m 535 -224 l 581 -160 l 336 0 l 267 -94 l 535 -224 z "},"̗":{"ha":0,"x_min":253,"x_max":567,"o":"m 299 -224 l 567 -94 l 497 0 l 253 -160 l 299 -224 z "},"̣":{"ha":0,"x_min":347,"x_max":486,"o":"m 347 -222 l 347 -83 l 486 -83 l 486 -222 l 347 -222 z "},"̤":{"ha":0,"x_min":194,"x_max":639,"o":"m 194 -208 l 194 -56 l 347 -56 l 347 -208 l 194 -208 m 486 -208 l 486 -56 l 639 -56 l 639 -208 l 486 -208 z "},"̥":{"ha":0,"x_min":268,"x_max":565,"o":"m 353 -56 l 268 -142 l 268 -267 l 353 -351 l 476 -351 l 565 -267 l 565 -142 l 476 -56 l 353 -56 m 385 -128 l 447 -128 l 493 -171 l 493 -236 l 447 -279 l 385 -279 l 340 -236 l 340 -171 l 385 -128 z "},"̦":{"ha":0,"x_min":279,"x_max":522,"o":"m 356 -362 l 522 -119 l 419 -64 l 279 -319 l 356 -362 z "},"̧":{"ha":0,"x_min":347,"x_max":569,"o":"m 347 -158 l 486 -158 l 347 0 l 465 0 l 569 -108 l 569 -151 l 458 -244 l 347 -244 l 347 -158 z "},"̨":{"ha":0,"x_min":306,"x_max":528,"o":"m 528 -158 l 389 -158 l 528 0 l 425 14 l 306 -108 l 306 -151 l 417 -244 l 528 -244 l 528 -158 z "},"̭":{"ha":0,"x_min":199,"x_max":633,"o":"m 447 -56 l 386 -56 l 199 -197 l 258 -261 l 415 -164 l 575 -261 l 633 -197 l 447 -56 z "},"̮":{"ha":0,"x_min":193,"x_max":640,"o":"m 193 -129 l 193 -56 l 333 -56 l 333 -185 l 500 -185 l 500 -56 l 640 -56 l 640 -129 l 501 -268 l 333 -268 l 193 -129 z "},"̱":{"ha":0,"x_min":235,"x_max":599,"o":"m 599 -156 l 235 -156 l 235 -56 l 599 -56 l 599 -156 z "},"̵":{"ha":0,"x_min":236,"x_max":597,"o":"m 597 367 l 236 367 l 236 467 l 597 467 l 597 367 z "},"̶":{"ha":0,"x_min":0,"x_max":833,"o":"m 833 367 l 0 367 l 0 467 l 833 467 l 833 367 z "},"̷":{"ha":0,"x_min":186,"x_max":619,"o":"m 525 892 l 186 -107 l 279 -139 l 619 860 l 525 892 z "},"̸":{"ha":0,"x_min":189,"x_max":683,"o":"m 589 1079 l 683 1047 l 282 -132 l 189 -100 l 589 1079 z "},"¨":{"ha":833,"x_min":194,"x_max":639,"o":"m 194 875 l 194 1028 l 347 1028 l 347 875 l 194 875 m 486 875 l 486 1028 l 639 1028 l 639 875 l 486 875 z "},"˙":{"ha":833,"x_min":347,"x_max":486,"o":"m 347 875 l 347 1014 l 486 1014 l 486 875 l 347 875 z "},"`":{"ha":833,"x_min":267,"x_max":581,"o":"m 535 901 l 581 965 l 336 1125 l 267 1031 l 535 901 z "},"´":{"ha":833,"x_min":253,"x_max":567,"o":"m 299 901 l 567 1031 l 497 1125 l 253 965 l 299 901 z "},"˝":{"ha":833,"x_min":188,"x_max":661,"o":"m 261 815 l 440 1051 l 332 1111 l 188 857 l 261 815 m 458 815 l 661 1032 l 560 1103 l 389 865 l 458 815 z "},"ˆ":{"ha":833,"x_min":199,"x_max":633,"o":"m 447 1053 l 386 1053 l 199 911 l 258 847 l 415 944 l 575 847 l 633 911 l 447 1053 z "},"ˇ":{"ha":833,"x_min":199,"x_max":633,"o":"m 447 928 l 633 1069 l 575 1133 l 415 1036 l 258 1133 l 199 1069 l 386 928 l 447 928 z "},"˘":{"ha":833,"x_min":193,"x_max":640,"o":"m 193 1039 l 193 1111 l 333 1111 l 333 982 l 500 982 l 500 1111 l 640 1111 l 640 1039 l 501 899 l 333 899 l 193 1039 z "},"˚":{"ha":833,"x_min":268,"x_max":565,"o":"m 353 1111 l 268 1025 l 268 900 l 353 815 l 476 815 l 565 900 l 565 1025 l 476 1111 l 353 1111 m 385 1039 l 447 1039 l 493 996 l 493 931 l 447 888 l 385 888 l 340 931 l 340 996 l 385 1039 z "},"˜":{"ha":833,"x_min":140,"x_max":693,"o":"m 649 1108 l 540 1043 l 283 1111 l 140 1026 l 185 950 l 299 1019 l 550 949 l 693 1033 l 649 1108 z "},"¯":{"ha":833,"x_min":235,"x_max":599,"o":"m 599 1011 l 235 1011 l 235 1111 l 599 1111 l 599 1011 z "},"¸":{"ha":833,"x_min":347,"x_max":569,"o":"m 347 -158 l 486 -158 l 347 0 l 465 0 l 569 -108 l 569 -151 l 458 -244 l 347 -244 l 347 -158 z "},"˛":{"ha":833,"x_min":306,"x_max":528,"o":"m 528 -158 l 389 -158 l 528 0 l 410 0 l 306 -108 l 306 -151 l 417 -244 l 528 -244 l 528 -158 z "},"":{"ha":833,"x_min":29,"x_max":833,"o":"m 833 -56 l 140 -56 l 140 1042 l 833 1042 l 833 1143 l 29 1143 l 29 -157 l 833 -157 l 833 -56 z "},"":{"ha":833,"x_min":-10,"x_max":843,"o":"m -10 -56 l -10 -157 l 843 -157 l 843 -56 l -10 -56 m -10 1143 l -10 1042 l 843 1042 l 843 1143 l -10 1143 z "},"":{"ha":833,"x_min":0,"x_max":804,"o":"m 0 -56 l 0 -157 l 804 -157 l 804 1143 l 0 1143 l 0 1042 l 693 1042 l 693 -56 l 0 -56 z "},"":{"ha":833,"x_min":29,"x_max":833,"o":"m 301 894 l 301 75 l 833 75 l 833 894 l 301 894 m 833 -56 l 140 -56 l 140 1042 l 833 1042 l 833 1143 l 29 1143 l 29 -157 l 833 -157 l 833 -56 z "},"":{"ha":833,"x_min":-10,"x_max":843,"o":"m -10 894 l -10 75 l 843 75 l 843 894 l -10 894 m -10 -56 l -10 -157 l 843 -157 l 843 -56 l -10 -56 m -10 1143 l -10 1042 l 843 1042 l 843 1143 l -10 1143 z "},"":{"ha":833,"x_min":0,"x_max":804,"o":"m 532 894 l 0 894 l 0 75 l 532 75 l 532 894 m 0 -56 l 0 -157 l 804 -157 l 804 1143 l 0 1143 l 0 1042 l 693 1042 l 693 -56 l 0 -56 z "}}}
